<?xml version="1.0" standalone="yes"?>

<svg version="1.1" viewBox="0.0 0.0 400.0 400.0" fill="none" stroke="none" stroke-linecap="square" stroke-miterlimit="10" xmlns="http://www.w3.org/2000/svg" xmlns:xlink="http://www.w3.org/1999/xlink"><clipPath id="p.0"><path d="m0 0l800.0 0l0 600.0l-800.0 0l0 -600.0z" clip-rule="nonzero"></path></clipPath><g clip-path="url(#p.0)"><path fill="#000000" fill-opacity="0.0" d="m0 0l800.0 0l0 600.0l-800.0 0z" fill-rule="evenodd"></path><path fill="#000000" fill-opacity="0.0" d="m37.065617 34.524933l327.55905 0l0 325.5433l-327.55905 0z" fill-rule="evenodd"></path><path stroke="#000000" stroke-width="2.0" stroke-linejoin="round" stroke-linecap="butt" d="m37.065617 34.524933l327.55905 0l0 325.5433l-327.55905 0z" fill-rule="evenodd"></path><path fill="#000000" d="m49.815617 56.324932l-3.6875 -9.546875l1.359375 0l2.484375 6.9375q0.296875 0.828125 0.5 1.5625q0.21875 -0.78125 0.515625 -1.5625l2.578125 -6.9375l1.28125 0l-3.734375 9.546875l-1.296875 0zm6.1241302 0l0 -9.546875l1.90625 0l2.25 6.765625q0.3125 0.9375 0.46875 1.40625q0.15625 -0.515625 0.5 -1.53125l2.28125 -6.640625l1.7031288 0l0 9.546875l-1.2187538 0l0 -7.984375l-2.765625 7.984375l-1.140625 0l-2.765625 -8.125l0 8.125l-1.21875 0z" fill-rule="nonzero"></path><path fill="#000000" fill-opacity="0.0" d="m53.089237 164.73753l46.07874 0l0 43.08661l-46.07874 0z" fill-rule="evenodd"></path><path stroke="#000000" stroke-width="2.0" stroke-linejoin="round" stroke-linecap="butt" d="m53.089237 164.73753l46.07874 0l0 43.08661l-46.07874 0z" fill-rule="evenodd"></path><path fill="#000000" fill-opacity="0.0" d="m53.089237 186.28084l-41.070866 -0.50393677" fill-rule="evenodd"></path><path stroke="#000000" stroke-width="2.0" stroke-linejoin="round" stroke-linecap="butt" d="m53.089237 186.28084l-33.491432 -0.4109497" fill-rule="evenodd"></path><path fill="#000000" stroke="#000000" stroke-width="2.0" stroke-linecap="butt" d="m13.018297 185.78917c0.02229309 -1.8168793 1.513238 -3.2716827 3.3301182 -3.2493896c1.8168793 0.02229309 3.271679 1.5132446 3.2493858 3.330124c-0.02229309 1.8168793 -1.513237 3.2716827 -3.3301163 3.2493896c-1.8168802 -0.02229309 -3.2716808 -1.5132446 -3.2493877 -3.330124z" fill-rule="nonzero"></path><path fill="#000000" fill-opacity="0.0" d="m78.13123 185.77428l36.062996 -37.07086" fill-rule="evenodd"></path><path stroke="#000000" stroke-width="2.0" stroke-linejoin="round" stroke-linecap="butt" d="m78.13123 185.77428l36.062996 -37.07086" fill-rule="evenodd"></path><path fill="#000000" fill-opacity="0.0" d="m79.13123 186.7769l34.04724 36.06299" fill-rule="evenodd"></path><path stroke="#000000" stroke-width="2.0" stroke-linejoin="round" stroke-linecap="butt" d="m79.13123 186.7769l34.04724 36.06299" fill-rule="evenodd"></path><path fill="#000000" fill-opacity="0.0" d="m99.16798 186.28084l0 0" fill-rule="evenodd"></path><path stroke="#000000" stroke-width="1.0" stroke-linejoin="round" stroke-linecap="butt" d="m99.16798 186.28084l0 0" fill-rule="evenodd"></path><path fill="#000000" fill-opacity="0.0" d="m116.19423 186.7769l-39.055122 0" fill-rule="evenodd"></path><path stroke="#000000" stroke-width="2.0" stroke-linejoin="round" stroke-linecap="butt" d="m116.19423 186.7769l-39.055122 0" fill-rule="evenodd"></path></g></svg>

