<?xml version="1.0" standalone="yes"?>

<svg version="1.1" viewBox="0.0 0.0 600.0 600.0" fill="none" stroke="none" stroke-linecap="square" stroke-miterlimit="10" xmlns="http://www.w3.org/2000/svg" xmlns:xlink="http://www.w3.org/1999/xlink"><clipPath id="p.0"><path d="m0 0l800.0 0l0 600.0l-800.0 0l0 -600.0z" clip-rule="nonzero"></path></clipPath><g clip-path="url(#p.0)"><path fill="#000000" fill-opacity="0.0" d="m0 0l800.0 0l0 600.0l-800.0 0z" fill-rule="evenodd"></path><path fill="#000000" fill-opacity="0.0" d="m37.065617 34.524933l327.55905 0l0 347.59055l-327.55905 0z" fill-rule="evenodd"></path><path stroke="#000000" stroke-width="2.0" stroke-linejoin="round" stroke-linecap="butt" d="m37.065617 34.524933l327.55905 0l0 347.59055l-327.55905 0z" fill-rule="evenodd"></path><path fill="#000000" d="m49.815617 56.324932l-3.6875 -9.546875l1.359375 0l2.484375 6.9375q0.296875 0.828125 0.5 1.5625q0.21875 -0.78125 0.515625 -1.5625l2.578125 -6.9375l1.28125 0l-3.734375 9.546875l-1.296875 0zm6.1241302 0l0 -9.546875l1.90625 0l2.25 6.765625q0.3125 0.9375 0.46875 1.40625q0.15625 -0.515625 0.5 -1.53125l2.28125 -6.640625l1.7031288 0l0 9.546875l-1.2187538 0l0 -7.984375l-2.765625 7.984375l-1.140625 0l-2.765625 -8.125l0 8.125l-1.21875 0z" fill-rule="nonzero"></path><path fill="#000000" fill-opacity="0.0" d="m53.089237 164.73753l46.07874 0l0 43.08661l-46.07874 0z" fill-rule="evenodd"></path><path stroke="#000000" stroke-width="2.0" stroke-linejoin="round" stroke-linecap="butt" d="m53.089237 164.73753l46.07874 0l0 43.08661l-46.07874 0z" fill-rule="evenodd"></path><path fill="#000000" fill-opacity="0.0" d="m53.089237 186.28084l-41.070866 -0.50393677" fill-rule="evenodd"></path><path stroke="#000000" stroke-width="2.0" stroke-linejoin="round" stroke-linecap="butt" d="m53.089237 186.28084l-33.491432 -0.4109497" fill-rule="evenodd"></path><path fill="#000000" stroke="#000000" stroke-width="2.0" stroke-linecap="butt" d="m13.018297 185.78917c0.02229309 -1.8168793 1.513238 -3.2716827 3.3301182 -3.2493896c1.8168793 0.02229309 3.271679 1.5132446 3.2493858 3.330124c-0.02229309 1.8168793 -1.513237 3.2716827 -3.3301163 3.2493896c-1.8168802 -0.02229309 -3.2716808 -1.5132446 -3.2493877 -3.330124z" fill-rule="nonzero"></path><path fill="#000000" fill-opacity="0.0" d="m78.13123 185.77428l75.11811 -75.11811" fill-rule="evenodd"></path><path stroke="#000000" stroke-width="2.0" stroke-linejoin="round" stroke-linecap="butt" d="m78.13123 185.77428l75.11811 -75.11811" fill-rule="evenodd"></path><path fill="#000000" fill-opacity="0.0" d="m79.13123 186.7769l34.04724 36.06299" fill-rule="evenodd"></path><path stroke="#000000" stroke-width="2.0" stroke-linejoin="round" stroke-linecap="butt" d="m79.13123 186.7769l34.04724 36.06299" fill-rule="evenodd"></path><path fill="#000000" fill-opacity="0.0" d="m99.16798 186.28084l0 0" fill-rule="evenodd"></path><path stroke="#000000" stroke-width="1.0" stroke-linejoin="round" stroke-linecap="butt" d="m99.16798 186.28084l0 0" fill-rule="evenodd"></path><path fill="#000000" fill-opacity="0.0" d="m194.23885 180.76378l-117.10236 6.015747" fill-rule="evenodd"></path><path stroke="#000000" stroke-width="2.0" stroke-linejoin="round" stroke-linecap="butt" d="m194.23885 180.76378l-117.10236 6.015747" fill-rule="evenodd"></path><path fill="#000000" fill-opacity="0.0" d="m153.24934 73.585304l134.23622 0l0 37.07086l-134.23622 0z" fill-rule="evenodd"></path><path stroke="#000000" stroke-width="2.0" stroke-linejoin="round" stroke-linecap="butt" d="m153.24934 73.585304l134.23622 0l0 37.07086l-134.23622 0z" fill-rule="evenodd"></path><path fill="#000000" d="m166.52946 96.92073l0 -9.546875l1.90625 0l2.25 6.765625q0.3125 0.9375 0.46875 1.40625q0.15625 -0.515625 0.5 -1.53125l2.28125 -6.640625l1.703125 0l0 9.546875l-1.21875 0l0 -7.984375l-2.765625 7.984375l-1.140625 0l-2.765625 -8.125l0 8.125l-1.21875 0zm15.508682 -0.859375q-0.65625 0.5625 -1.265625 0.796875q-0.59375 0.21875 -1.28125 0.21875q-1.140625 0 -1.75 -0.546875q-0.609375 -0.5625 -0.609375 -1.4375q0 -0.5 0.21875 -0.921875q0.234375 -0.421875 0.609375 -0.671875q0.375 -0.25 0.84375 -0.390625q0.34375 -0.078125 1.046875 -0.171875q1.421875 -0.171875 2.09375 -0.40625q0 -0.234375 0 -0.296875q0 -0.71875 -0.328125 -1.015625q-0.453125 -0.390625 -1.34375 -0.390625q-0.8125 0 -1.21875 0.296875q-0.390625 0.28125 -0.578125 1.015625l-1.140625 -0.15625q0.15625 -0.734375 0.515625 -1.1875q0.359375 -0.453125 1.03125 -0.6875q0.671875 -0.25 1.5625 -0.25q0.890625 0 1.4375 0.203125q0.5625 0.203125 0.8125 0.53125q0.265625 0.3125 0.375 0.796875q0.046875 0.296875 0.046875 1.078125l0 1.5625q0 1.625 0.078125 2.0625q0.078125 0.4375 0.296875 0.828125l-1.21875 0q-0.1875 -0.359375 -0.234375 -0.859375zm-0.09375 -2.609375q-0.640625 0.265625 -1.921875 0.4375q-0.71875 0.109375 -1.015625 0.25q-0.296875 0.125 -0.46875 0.375q-0.15625 0.25 -0.15625 0.546875q0 0.46875 0.34375 0.78125q0.359375 0.3125 1.046875 0.3125q0.671875 0 1.203125 -0.296875q0.53125 -0.296875 0.78125 -0.8125q0.1875 -0.390625 0.1875 -1.171875l0 -0.421875zm2.9906006 3.46875l0 -6.90625l1.0625 0l0 0.984375q0.75 -1.140625 2.1875 -1.140625q0.625 0 1.15625 0.21875q0.53125 0.21875 0.78125 0.59375q0.265625 0.359375 0.375 0.859375q0.0625 0.328125 0.0625 1.140625l0 4.25l-1.171875 0l0 -4.203125q0 -0.71875 -0.140625 -1.0625q-0.140625 -0.359375 -0.484375 -0.5625q-0.34375 -0.21875 -0.8125 -0.21875q-0.75 0 -1.296875 0.46875q-0.546875 0.46875 -0.546875 1.796875l0 3.78125l-1.171875 0zm11.928101 -0.859375q-0.65625 0.5625 -1.265625 0.796875q-0.59375 0.21875 -1.28125 0.21875q-1.140625 0 -1.75 -0.546875q-0.609375 -0.5625 -0.609375 -1.4375q0 -0.5 0.21875 -0.921875q0.234375 -0.421875 0.609375 -0.671875q0.375 -0.25 0.84375 -0.390625q0.34375 -0.078125 1.046875 -0.171875q1.421875 -0.171875 2.09375 -0.40625q0 -0.234375 0 -0.296875q0 -0.71875 -0.328125 -1.015625q-0.453125 -0.390625 -1.34375 -0.390625q-0.8125 0 -1.21875 0.296875q-0.390625 0.28125 -0.578125 1.015625l-1.140625 -0.15625q0.15625 -0.734375 0.515625 -1.1875q0.359375 -0.453125 1.03125 -0.6875q0.671875 -0.25 1.5625 -0.25q0.890625 0 1.4375 0.203125q0.5625 0.203125 0.8125 0.53125q0.265625 0.3125 0.375 0.796875q0.046875 0.296875 0.046875 1.078125l0 1.5625q0 1.625 0.078125 2.0625q0.078125 0.4375 0.296875 0.828125l-1.21875 0q-0.1875 -0.359375 -0.234375 -0.859375zm-0.09375 -2.609375q-0.640625 0.265625 -1.921875 0.4375q-0.71875 0.109375 -1.015625 0.25q-0.296875 0.125 -0.46875 0.375q-0.15625 0.25 -0.15625 0.546875q0 0.46875 0.34375 0.78125q0.359375 0.3125 1.046875 0.3125q0.671875 0 1.203125 -0.296875q0.53125 -0.296875 0.78125 -0.8125q0.1875 -0.390625 0.1875 -1.171875l0 -0.421875zm2.7718506 4.046875l1.140625 0.15625q0.078125 0.53125 0.40625 0.78125q0.4375 0.3125 1.1875 0.3125q0.8125 0 1.25 -0.328125q0.453125 -0.3125 0.609375 -0.90625q0.09375 -0.359375 0.078125 -1.5q-0.765625 0.90625 -1.90625 0.90625q-1.4375 0 -2.21875 -1.03125q-0.78125 -1.03125 -0.78125 -2.46875q0 -0.984375 0.359375 -1.8125q0.359375 -0.84375 1.03125 -1.296875q0.6875 -0.453125 1.609375 -0.453125q1.21875 0 2.015625 0.984375l0 -0.828125l1.078125 0l0 5.96875q0 1.609375 -0.328125 2.28125q-0.328125 0.6875 -1.046875 1.078125q-0.703125 0.390625 -1.75 0.390625q-1.234375 0 -2.0 -0.5625q-0.75 -0.5625 -0.734375 -1.671875zm0.984375 -4.15625q0 1.359375 0.53125 1.984375q0.546875 0.625 1.359375 0.625q0.796875 0 1.34375 -0.625q0.546875 -0.625 0.546875 -1.953125q0 -1.265625 -0.5625 -1.90625q-0.5625 -0.640625 -1.359375 -0.640625q-0.765625 0 -1.3125 0.640625q-0.546875 0.625 -0.546875 1.875zm11.381226 1.359375l1.203125 0.140625q-0.28125 1.0625 -1.0625 1.65625q-0.765625 0.578125 -1.96875 0.578125q-1.515625 0 -2.40625 -0.9375q-0.890625 -0.9375 -0.890625 -2.609375q0 -1.75 0.890625 -2.703125q0.90625 -0.96875 2.34375 -0.96875q1.390625 0 2.265625 0.9375q0.875 0.9375 0.875 2.65625q0 0.109375 0 0.3125l-5.15625 0q0.0625 1.140625 0.640625 1.75q0.578125 0.59375 1.4375 0.59375q0.65625 0 1.109375 -0.328125q0.453125 -0.34375 0.71875 -1.078125zm-3.84375 -1.90625l3.859375 0q-0.078125 -0.859375 -0.4375 -1.296875q-0.5625 -0.6875 -1.453125 -0.6875q-0.8125 0 -1.359375 0.546875q-0.546875 0.53125 -0.609375 1.4375zm6.5218506 4.125l0 -6.90625l1.046875 0l0 0.96875q0.328125 -0.515625 0.859375 -0.8125q0.546875 -0.3125 1.234375 -0.3125q0.78125 0 1.265625 0.3125q0.484375 0.3125 0.6875 0.890625q0.828125 -1.203125 2.140625 -1.203125q1.03125 0 1.578125 0.578125q0.5625 0.5625 0.5625 1.734375l0 4.75l-1.171875 0l0 -4.359375q0 -0.703125 -0.125 -1.0q-0.109375 -0.3125 -0.40625 -0.5q-0.296875 -0.1875 -0.703125 -0.1875q-0.71875 0 -1.203125 0.484375q-0.484375 0.484375 -0.484375 1.546875l0 4.015625l-1.171875 0l0 -4.484375q0 -0.78125 -0.296875 -1.171875q-0.28125 -0.390625 -0.921875 -0.390625q-0.5 0 -0.921875 0.265625q-0.421875 0.25 -0.609375 0.75q-0.1875 0.5 -0.1875 1.453125l0 3.578125l-1.171875 0zm15.836807 -2.21875l1.203125 0.140625q-0.28125 1.0625 -1.0625 1.65625q-0.765625 0.578125 -1.96875 0.578125q-1.515625 0 -2.40625 -0.9375q-0.890625 -0.9375 -0.890625 -2.609375q0 -1.75 0.890625 -2.703125q0.90625 -0.96875 2.34375 -0.96875q1.390625 0 2.265625 0.9375q0.875 0.9375 0.875 2.65625q0 0.109375 0 0.3125l-5.15625 0q0.0625 1.140625 0.640625 1.75q0.578125 0.59375 1.4375 0.59375q0.65625 0 1.109375 -0.328125q0.453125 -0.34375 0.71875 -1.078125zm-3.84375 -1.90625l3.859375 0q-0.078125 -0.859375 -0.4375 -1.296875q-0.5625 -0.6875 -1.453125 -0.6875q-0.8125 0 -1.359375 0.546875q-0.546875 0.53125 -0.609375 1.4375zm6.5218506 4.125l0 -6.90625l1.0625 0l0 0.984375q0.75 -1.140625 2.1875 -1.140625q0.625 0 1.15625 0.21875q0.53125 0.21875 0.78125 0.59375q0.265625 0.359375 0.375 0.859375q0.0625 0.328125 0.0625 1.140625l0 4.25l-1.171875 0l0 -4.203125q0 -0.71875 -0.140625 -1.0625q-0.140625 -0.359375 -0.484375 -0.5625q-0.34375 -0.21875 -0.8125 -0.21875q-0.75 0 -1.296875 0.46875q-0.546875 0.46875 -0.546875 1.796875l0 3.78125l-1.171875 0zm9.974976 -1.046875l0.171875 1.03125q-0.5 0.109375 -0.890625 0.109375q-0.640625 0 -1.0 -0.203125q-0.34375 -0.203125 -0.484375 -0.53125q-0.140625 -0.328125 -0.140625 -1.390625l0 -3.96875l-0.859375 0l0 -0.90625l0.859375 0l0 -1.71875l1.171875 -0.703125l0 2.421875l1.171875 0l0 0.90625l-1.171875 0l0 4.046875q0 0.5 0.046875 0.640625q0.0625 0.140625 0.203125 0.234375q0.140625 0.078125 0.40625 0.078125q0.203125 0 0.515625 -0.046875zm3.9528503 1.046875l3.65625 -9.546875l1.359375 0l3.90625 9.546875l-1.4375 0l-1.109375 -2.890625l-3.984375 0l-1.046875 2.890625l-1.34375 0zm2.75 -3.921875l3.234375 0l-1.0 -2.640625q-0.453125 -1.203125 -0.671875 -1.96875q-0.1875 0.90625 -0.515625 1.8125l-1.046875 2.796875zm7.1866302 3.921875l0 -9.546875l3.59375 0q0.953125 0 1.453125 0.09375q0.703125 0.125 1.171875 0.453125q0.484375 0.328125 0.765625 0.921875q0.296875 0.59375 0.296875 1.296875q0 1.21875 -0.78125 2.0625q-0.765625 0.84375 -2.796875 0.84375l-2.4375 0l0 3.875l-1.265625 0zm1.265625 -5.0l2.453125 0q1.234375 0 1.75 -0.453125q0.515625 -0.46875 0.515625 -1.28125q0 -0.609375 -0.3125 -1.03125q-0.296875 -0.421875 -0.796875 -0.5625q-0.3125 -0.09375 -1.171875 -0.09375l-2.4375 0l0 3.421875zm7.842865 5.0l0 -9.546875l1.25 0l0 9.546875l-1.25 0zm2.859253 -2.0625l1.15625 -0.1875q0.109375 0.703125 0.546875 1.078125q0.453125 0.359375 1.25 0.359375q0.8125 0 1.203125 -0.328125q0.390625 -0.328125 0.390625 -0.765625q0 -0.390625 -0.359375 -0.625q-0.234375 -0.15625 -1.1875 -0.390625q-1.296875 -0.328125 -1.796875 -0.5625q-0.484375 -0.25 -0.75 -0.65625q-0.25 -0.421875 -0.25 -0.9375q0 -0.453125 0.203125 -0.84375q0.21875 -0.40625 0.578125 -0.671875q0.28125 -0.1875 0.75 -0.328125q0.46875 -0.140625 1.015625 -0.140625q0.8125 0 1.421875 0.234375q0.609375 0.234375 0.90625 0.640625q0.296875 0.390625 0.40625 1.0625l-1.140625 0.15625q-0.078125 -0.53125 -0.453125 -0.828125q-0.375 -0.3125 -1.0625 -0.3125q-0.8125 0 -1.15625 0.265625q-0.34375 0.265625 -0.34375 0.625q0 0.234375 0.140625 0.421875q0.15625 0.1875 0.453125 0.3125q0.171875 0.0625 1.03125 0.296875q1.25 0.328125 1.734375 0.546875q0.5 0.203125 0.78125 0.609375q0.28125 0.40625 0.28125 1.0q0 0.59375 -0.34375 1.109375q-0.34375 0.515625 -1.0 0.796875q-0.640625 0.28125 -1.453125 0.28125q-1.34375 0 -2.046875 -0.5625q-0.703125 -0.5625 -0.90625 -1.65625z" fill-rule="nonzero"></path><path fill="#000000" fill-opacity="0.0" d="m433.72177 172.9252l0 0c0 -7.2833557 15.248199 -13.187668 34.05777 -13.187668c18.80957 0 34.05774 5.904312 34.05774 13.187668l0 52.750656c0 7.2833405 -15.248169 13.187653 -34.05774 13.187653c-18.80957 0 -34.05777 -5.904312 -34.05777 -13.187653z" fill-rule="evenodd"></path><path fill="#000000" fill-opacity="0.0" d="m501.83728 172.9252l0 0c0 7.2833405 -15.248169 13.187653 -34.05774 13.187653c-18.80957 0 -34.05777 -5.904312 -34.05777 -13.187653" fill-rule="evenodd"></path><path fill="#000000" fill-opacity="0.0" d="m433.72177 172.9252l0 0c0 -7.2833557 15.248199 -13.187668 34.05777 -13.187668c18.80957 0 34.05774 5.904312 34.05774 13.187668l0 52.750656c0 7.2833405 -15.248169 13.187653 -34.05774 13.187653c-18.80957 0 -34.05777 -5.904312 -34.05777 -13.187653z" fill-rule="evenodd"></path><path stroke="#000000" stroke-width="2.0" stroke-linejoin="round" stroke-linecap="butt" d="m501.83728 172.9252l0 0c0 7.2833405 -15.248169 13.187653 -34.05774 13.187653c-18.80957 0 -34.05777 -5.904312 -34.05777 -13.187653" fill-rule="evenodd"></path><path stroke="#000000" stroke-width="2.0" stroke-linejoin="round" stroke-linecap="butt" d="m433.72177 172.9252l0 0c0 -7.2833557 15.248199 -13.187668 34.05777 -13.187668c18.80957 0 34.05774 5.904312 34.05774 13.187668l0 52.750656c0 7.2833405 -15.248169 13.187653 -34.05774 13.187653c-18.80957 0 -34.05777 -5.904312 -34.05777 -13.187653z" fill-rule="evenodd"></path><path fill="#000000" d="m445.03278 207.63185l1.203125 -0.109375q0.078125 0.71875 0.390625 1.1875q0.3125 0.453125 0.953125 0.734375q0.65625 0.28125 1.46875 0.28125q0.71875 0 1.265625 -0.21875q0.5625 -0.21875 0.828125 -0.578125q0.265625 -0.375 0.265625 -0.828125q0 -0.453125 -0.265625 -0.78125q-0.25 -0.328125 -0.84375 -0.5625q-0.390625 -0.15625 -1.703125 -0.46875q-1.3125 -0.3125 -1.84375 -0.59375q-0.671875 -0.359375 -1.015625 -0.890625q-0.328125 -0.53125 -0.328125 -1.1875q0 -0.71875 0.40625 -1.34375q0.40625 -0.625 1.1875 -0.953125q0.796875 -0.328125 1.765625 -0.328125q1.046875 0 1.859375 0.34375q0.8125 0.34375 1.25 1.015625q0.4375 0.65625 0.46875 1.484375l-1.203125 0.09375q-0.109375 -0.90625 -0.671875 -1.359375q-0.5625 -0.46875 -1.65625 -0.46875q-1.140625 0 -1.671875 0.421875q-0.515625 0.421875 -0.515625 1.015625q0 0.515625 0.359375 0.84375q0.375 0.328125 1.90625 0.6875q1.546875 0.34375 2.109375 0.59375q0.84375 0.390625 1.234375 0.984375q0.390625 0.578125 0.390625 1.359375q0 0.75 -0.4375 1.4375q-0.421875 0.671875 -1.25 1.046875q-0.8125 0.359375 -1.828125 0.359375q-1.296875 0 -2.171875 -0.375q-0.875 -0.375 -1.375 -1.125q-0.5 -0.765625 -0.53125 -1.71875zm11.73349 2.015625l0.171875 1.03125q-0.5 0.109375 -0.890625 0.109375q-0.640625 0 -1.0 -0.203125q-0.34375 -0.203125 -0.484375 -0.53125q-0.140625 -0.328125 -0.140625 -1.390625l0 -3.96875l-0.859375 0l0 -0.90625l0.859375 0l0 -1.71875l1.171875 -0.703125l0 2.421875l1.171875 0l0 0.90625l-1.171875 0l0 4.046875q0 0.5 0.046875 0.640625q0.0625 0.140625 0.203125 0.234375q0.140625 0.078125 0.40625 0.078125q0.203125 0 0.515625 -0.046875zm0.7030029 -2.40625q0 -1.921875 1.078125 -2.84375q0.890625 -0.765625 2.171875 -0.765625q1.421875 0 2.328125 0.9375q0.90625 0.921875 0.90625 2.578125q0 1.328125 -0.40625 2.09375q-0.390625 0.765625 -1.15625 1.1875q-0.765625 0.421875 -1.671875 0.421875q-1.453125 0 -2.359375 -0.921875q-0.890625 -0.9375 -0.890625 -2.6875zm1.203125 0q0 1.328125 0.578125 1.984375q0.59375 0.65625 1.46875 0.65625q0.875 0 1.453125 -0.65625q0.578125 -0.671875 0.578125 -2.03125q0 -1.28125 -0.59375 -1.9375q-0.578125 -0.65625 -1.4375 -0.65625q-0.875 0 -1.46875 0.65625q-0.578125 0.65625 -0.578125 1.984375zm6.6312256 3.453125l0 -6.90625l1.0625 0l0 1.046875q0.40625 -0.734375 0.734375 -0.96875q0.34375 -0.234375 0.765625 -0.234375q0.59375 0 1.203125 0.375l-0.40625 1.078125q-0.4375 -0.25 -0.859375 -0.25q-0.390625 0 -0.703125 0.234375q-0.296875 0.234375 -0.421875 0.640625q-0.203125 0.625 -0.203125 1.359375l0 3.625l-1.171875 0zm8.9696045 -0.859375q-0.65625 0.5625 -1.265625 0.796875q-0.59375 0.21875 -1.28125 0.21875q-1.140625 0 -1.75 -0.546875q-0.609375 -0.5625 -0.609375 -1.4375q0 -0.5 0.21875 -0.921875q0.234375 -0.421875 0.609375 -0.671875q0.375 -0.25 0.84375 -0.390625q0.34375 -0.078125 1.046875 -0.171875q1.421875 -0.171875 2.09375 -0.40625q0 -0.234375 0 -0.296875q0 -0.71875 -0.328125 -1.015625q-0.453125 -0.390625 -1.34375 -0.390625q-0.8125 0 -1.21875 0.296875q-0.390625 0.28125 -0.578125 1.015625l-1.140625 -0.15625q0.15625 -0.734375 0.515625 -1.1875q0.359375 -0.453125 1.03125 -0.6875q0.671875 -0.25 1.5625 -0.25q0.890625 0 1.4375 0.203125q0.5625 0.203125 0.8125 0.53125q0.265625 0.3125 0.375 0.796875q0.046875 0.296875 0.046875 1.078125l0 1.5625q0 1.625 0.078125 2.0625q0.078125 0.4375 0.296875 0.828125l-1.21875 0q-0.1875 -0.359375 -0.234375 -0.859375zm-0.09375 -2.609375q-0.640625 0.265625 -1.921875 0.4375q-0.71875 0.109375 -1.015625 0.25q-0.296875 0.125 -0.46875 0.375q-0.15625 0.25 -0.15625 0.546875q0 0.46875 0.34375 0.78125q0.359375 0.3125 1.046875 0.3125q0.671875 0 1.203125 -0.296875q0.53125 -0.296875 0.78125 -0.8125q0.1875 -0.390625 0.1875 -1.171875l0 -0.421875zm2.7718506 4.046875l1.140625 0.15625q0.078125 0.53125 0.40625 0.78125q0.4375 0.3125 1.1875 0.3125q0.8125 0 1.25 -0.328125q0.453125 -0.3125 0.609375 -0.90625q0.09375 -0.359375 0.078125 -1.5q-0.765625 0.90625 -1.90625 0.90625q-1.4375 0 -2.21875 -1.03125q-0.78125 -1.03125 -0.78125 -2.46875q0 -0.984375 0.359375 -1.8125q0.359375 -0.84375 1.03125 -1.296875q0.6875 -0.453125 1.609375 -0.453125q1.21875 0 2.015625 0.984375l0 -0.828125l1.078125 0l0 5.96875q0 1.609375 -0.328125 2.28125q-0.328125 0.6875 -1.046875 1.078125q-0.703125 0.390625 -1.75 0.390625q-1.234375 0 -2.0 -0.5625q-0.75 -0.5625 -0.734375 -1.671875zm0.984375 -4.15625q0 1.359375 0.53125 1.984375q0.546875 0.625 1.359375 0.625q0.796875 0 1.34375 -0.625q0.546875 -0.625 0.546875 -1.953125q0 -1.265625 -0.5625 -1.90625q-0.5625 -0.640625 -1.359375 -0.640625q-0.765625 0 -1.3125 0.640625q-0.546875 0.625 -0.546875 1.875zm11.381226 1.359375l1.203125 0.140625q-0.28125 1.0625 -1.0625 1.65625q-0.765625 0.578125 -1.96875 0.578125q-1.515625 0 -2.40625 -0.9375q-0.890625 -0.9375 -0.890625 -2.609375q0 -1.75 0.890625 -2.703125q0.90625 -0.96875 2.34375 -0.96875q1.390625 0 2.265625 0.9375q0.875 0.9375 0.875 2.65625q0 0.109375 0 0.3125l-5.15625 0q0.0625 1.140625 0.640625 1.75q0.578125 0.59375 1.4375 0.59375q0.65625 0 1.109375 -0.328125q0.453125 -0.34375 0.71875 -1.078125zm-3.84375 -1.90625l3.859375 0q-0.078125 -0.859375 -0.4375 -1.296875q-0.5625 -0.6875 -1.453125 -0.6875q-0.8125 0 -1.359375 0.546875q-0.546875 0.53125 -0.609375 1.4375z" fill-rule="nonzero"></path><path fill="#000000" fill-opacity="0.0" d="m287.48557 92.120735l180.28348 0l0 67.62205" fill-rule="evenodd"></path><path stroke="#000000" stroke-width="2.0" stroke-linejoin="round" stroke-linecap="butt" d="m287.48557 92.120735l180.28348 0l0 67.62205" fill-rule="evenodd"></path><path fill="#000000" fill-opacity="0.0" d="m187.74892 164.33624l0 0c-1.3809967 -7.917923 3.1531067 -15.756195 11.678299 -20.188736c8.5252075 -4.432541 19.546371 -4.6819763 28.386826 -0.6424866l0 0c3.1315613 -4.6038055 8.86322 -7.782425 15.461288 -8.574371c6.598053 -0.7919464 13.287537 0.8957977 18.044983 4.552704l0 0c2.667694 -4.174118 7.905731 -6.9785767 13.855408 -7.4182434c5.9496765 -0.4396515 11.768982 1.5477295 15.392883 5.256912l0 0c4.8195496 -4.4245453 12.48761 -6.2874603 19.686127 -4.782654c7.198517 1.5048065 12.634613 6.1070557 13.956024 11.815338l0 0c5.904785 1.2565918 10.823334 4.451004 13.484863 8.757919c2.66156 4.3069153 2.8049622 9.303818 0.3932495 13.6996765l0 0c5.8144836 5.904129 7.1746216 13.771286 3.572876 20.665619c-3.6017761 6.894333 -11.624329 11.780029 -21.073822 12.833832c-0.066589355 6.470581 -4.615082 12.407898 -11.892273 15.523468c-7.2771606 3.11557 -16.146698 2.9228668 -23.18985 -0.5038147c-3.0000305 7.749634 -11.444061 13.451736 -21.68396 14.642792c-10.239929 1.1910553 -20.440033 -2.342453 -26.193497 -9.073914c-7.052536 3.3179626 -15.514999 4.273758 -23.478409 2.6517792c-7.9634247 -1.6219635 -14.757004 -5.685089 -18.848251 -11.272797l0 0c-7.2068024 0.65797424 -14.174789 -2.2551422 -17.44577 -7.293564c-3.2709808 -5.0384216 -2.1486359 -11.129593 2.8100128 -15.250488l0 0c-6.428665 -2.952011 -9.708954 -8.809784 -8.130325 -14.518723c1.5786133 -5.7089386 7.658432 -9.975357 15.069046 -10.574509z" fill-rule="evenodd"></path><path fill="#000000" fill-opacity="0.0" d="m180.66774 189.73465l0 0c3.0337067 1.3930664 6.5383453 2.024994 10.0433655 1.8109436m4.5908203 20.733612c1.5072784 -0.13760376 2.9847107 -0.4290161 4.3941803 -0.8667145m37.930374 9.487366c-1.0601349 -1.2403412 -1.9477234 -2.5657501 -2.6476593 -3.9536438m50.526947 -1.6154633l0 0c0.54693604 -1.4128723 0.90130615 -2.867035 1.05719 -4.338196m34.02362 -10.680908c0.070892334 -6.8889313 -4.9442444 -13.196503 -12.891327 -16.213425m30.39206 -17.285309c-1.2869873 2.34581 -3.2517395 4.426758 -5.740204 6.079651m-8.136688 -28.537857l0 0c0.21929932 0.94729614 0.32077026 1.9088135 0.30307007 2.8712616m-33.94464 -9.903656l0 0c-1.20224 1.103714 -2.1927185 2.337082 -2.9406433 3.661728m-26.307892 -1.500885l0 0c-0.64071655 1.0024872 -1.1191406 2.0632935 -1.4242859 3.1579742m-32.082504 0.8637848l0 0c1.870636 0.8547516 3.6012268 1.8835449 5.153763 3.0637665m-45.21837 17.767563l0 0c0.19033813 1.0912933 0.49108887 2.1691437 0.89941406 3.2234344" fill-rule="evenodd"></path><path stroke="#000000" stroke-width="2.0" stroke-linejoin="round" stroke-linecap="butt" d="m187.74892 164.33624l0 0c-1.3809967 -7.917923 3.1531067 -15.756195 11.678299 -20.188736c8.5252075 -4.432541 19.546371 -4.6819763 28.386826 -0.6424866l0 0c3.1315613 -4.6038055 8.86322 -7.782425 15.461288 -8.574371c6.598053 -0.7919464 13.287537 0.8957977 18.044983 4.552704l0 0c2.667694 -4.174118 7.905731 -6.9785767 13.855408 -7.4182434c5.9496765 -0.4396515 11.768982 1.5477295 15.392883 5.256912l0 0c4.8195496 -4.4245453 12.48761 -6.2874603 19.686127 -4.782654c7.198517 1.5048065 12.634613 6.1070557 13.956024 11.815338l0 0c5.904785 1.2565918 10.823334 4.451004 13.484863 8.757919c2.66156 4.3069153 2.8049622 9.303818 0.3932495 13.6996765l0 0c5.8144836 5.904129 7.1746216 13.771286 3.572876 20.665619c-3.6017761 6.894333 -11.624329 11.780029 -21.073822 12.833832c-0.066589355 6.470581 -4.615082 12.407898 -11.892273 15.523468c-7.2771606 3.11557 -16.146698 2.9228668 -23.18985 -0.5038147c-3.0000305 7.749634 -11.444061 13.451736 -21.68396 14.642792c-10.239929 1.1910553 -20.440033 -2.342453 -26.193497 -9.073914c-7.052536 3.3179626 -15.514999 4.273758 -23.478409 2.6517792c-7.9634247 -1.6219635 -14.757004 -5.685089 -18.848251 -11.272797l0 0c-7.2068024 0.65797424 -14.174789 -2.2551422 -17.44577 -7.293564c-3.2709808 -5.0384216 -2.1486359 -11.129593 2.8100128 -15.250488l0 0c-6.428665 -2.952011 -9.708954 -8.809784 -8.130325 -14.518723c1.5786133 -5.7089386 7.658432 -9.975357 15.069046 -10.574509z" fill-rule="evenodd"></path><path stroke="#000000" stroke-width="2.0" stroke-linejoin="round" stroke-linecap="butt" d="m180.66774 189.73465l0 0c3.0337067 1.3930664 6.5383453 2.024994 10.0433655 1.8109436m4.5908203 20.733612c1.5072784 -0.13760376 2.9847107 -0.4290161 4.3941803 -0.8667145m37.930374 9.487366c-1.0601349 -1.2403412 -1.9477234 -2.5657501 -2.6476593 -3.9536438m50.526947 -1.6154633l0 0c0.54693604 -1.4128723 0.90130615 -2.867035 1.05719 -4.338196m34.02362 -10.680908c0.070892334 -6.8889313 -4.9442444 -13.196503 -12.891327 -16.213425m30.39206 -17.285309c-1.2869873 2.34581 -3.2517395 4.426758 -5.740204 6.079651m-8.136688 -28.537857l0 0c0.21929932 0.94729614 0.32077026 1.9088135 0.30307007 2.8712616m-33.94464 -9.903656l0 0c-1.20224 1.103714 -2.1927185 2.337082 -2.9406433 3.661728m-26.307892 -1.500885l0 0c-0.64071655 1.0024872 -1.1191406 2.0632935 -1.4242859 3.1579742m-32.082504 0.8637848l0 0c1.870636 0.8547516 3.6012268 1.8835449 5.153763 3.0637665m-45.21837 17.767563l0 0c0.19033813 1.0912933 0.49108887 2.1691437 0.89941406 3.2234344" fill-rule="evenodd"></path><path fill="#000000" fill-opacity="0.0" d="m153.24934 246.84776l134.23622 0l0 37.070877l-134.23622 0z" fill-rule="evenodd"></path><path stroke="#000000" stroke-width="2.0" stroke-linejoin="round" stroke-linecap="butt" d="m153.24934 246.84776l134.23622 0l0 37.070877l-134.23622 0z" fill-rule="evenodd"></path><path fill="#000000" d="m175.21817 266.83945l1.265625 0.3125q-0.390625 1.5625 -1.421875 2.375q-1.03125 0.8125 -2.53125 0.8125q-1.53125 0 -2.5 -0.625q-0.96875 -0.625 -1.484375 -1.8125q-0.5 -1.1875 -0.5 -2.5625q0 -1.484375 0.5625 -2.59375q0.578125 -1.109375 1.625 -1.6875q1.0625 -0.578125 2.328125 -0.578125q1.421875 0 2.390625 0.734375q0.984375 0.71875 1.375 2.046875l-1.25 0.296875q-0.328125 -1.046875 -0.96875 -1.515625q-0.625 -0.484375 -1.578125 -0.484375q-1.09375 0 -1.84375 0.53125q-0.734375 0.53125 -1.03125 1.421875q-0.296875 0.875 -0.296875 1.828125q0 1.21875 0.34375 2.125q0.359375 0.90625 1.109375 1.359375q0.75 0.4375 1.625 0.4375q1.0625 0 1.796875 -0.609375q0.734375 -0.609375 0.984375 -1.8125zm2.2345276 -0.109375q0 -1.921875 1.078125 -2.84375q0.890625 -0.765625 2.171875 -0.765625q1.421875 0 2.328125 0.9375q0.90625 0.921875 0.90625 2.578125q0 1.328125 -0.40625 2.09375q-0.390625 0.765625 -1.15625 1.1875q-0.765625 0.421875 -1.671875 0.421875q-1.453125 0 -2.359375 -0.921875q-0.890625 -0.9375 -0.890625 -2.6875zm1.203125 0q0 1.328125 0.578125 1.984375q0.59375 0.65625 1.46875 0.65625q0.875 0 1.453125 -0.65625q0.578125 -0.671875 0.578125 -2.03125q0 -1.28125 -0.59375 -1.9375q-0.578125 -0.65625 -1.4375 -0.65625q-0.875 0 -1.46875 0.65625q-0.578125 0.65625 -0.578125 1.984375zm6.6468506 3.453125l0 -6.90625l1.0625 0l0 0.984375q0.75 -1.140625 2.1875 -1.140625q0.625 0 1.15625 0.21875q0.53125 0.21875 0.78125 0.59375q0.265625 0.359375 0.375 0.859375q0.0625 0.328125 0.0625 1.140625l0 4.25l-1.171875 0l0 -4.203125q0 -0.71875 -0.140625 -1.0625q-0.140625 -0.359375 -0.484375 -0.5625q-0.34375 -0.21875 -0.8125 -0.21875q-0.75 0 -1.296875 0.46875q-0.546875 0.46875 -0.546875 1.796875l0 3.78125l-1.171875 0zm9.974976 -1.046875l0.171875 1.03125q-0.5 0.109375 -0.890625 0.109375q-0.640625 0 -1.0 -0.203125q-0.34375 -0.203125 -0.484375 -0.53125q-0.140625 -0.328125 -0.140625 -1.390625l0 -3.96875l-0.859375 0l0 -0.90625l0.859375 0l0 -1.71875l1.171875 -0.703125l0 2.421875l1.171875 0l0 0.90625l-1.171875 0l0 4.046875q0 0.5 0.046875 0.640625q0.0625 0.140625 0.203125 0.234375q0.140625 0.078125 0.40625 0.078125q0.203125 0 0.515625 -0.046875zm5.6561127 0.1875q-0.65625 0.5625 -1.265625 0.796875q-0.59375 0.21875 -1.28125 0.21875q-1.140625 0 -1.75 -0.546875q-0.609375 -0.5625 -0.609375 -1.4375q0 -0.5 0.21875 -0.921875q0.234375 -0.421875 0.609375 -0.671875q0.375 -0.25 0.84375 -0.390625q0.34375 -0.078125 1.046875 -0.171875q1.421875 -0.171875 2.09375 -0.40625q0 -0.234375 0 -0.296875q0 -0.71875 -0.328125 -1.015625q-0.453125 -0.390625 -1.34375 -0.390625q-0.8125 0 -1.21875 0.296875q-0.390625 0.28125 -0.578125 1.015625l-1.140625 -0.15625q0.15625 -0.734375 0.515625 -1.1875q0.359375 -0.453125 1.03125 -0.6875q0.671875 -0.25 1.5625 -0.25q0.890625 0 1.4375 0.203125q0.5625 0.203125 0.8125 0.53125q0.265625 0.3125 0.375 0.796875q0.046875 0.296875 0.046875 1.078125l0 1.5625q0 1.625 0.078125 2.0625q0.078125 0.4375 0.296875 0.828125l-1.21875 0q-0.1875 -0.359375 -0.234375 -0.859375zm-0.09375 -2.609375q-0.640625 0.265625 -1.921875 0.4375q-0.71875 0.109375 -1.015625 0.25q-0.296875 0.125 -0.46875 0.375q-0.15625 0.25 -0.15625 0.546875q0 0.46875 0.34375 0.78125q0.359375 0.3125 1.046875 0.3125q0.671875 0 1.203125 -0.296875q0.53125 -0.296875 0.78125 -0.8125q0.1875 -0.390625 0.1875 -1.171875l0 -0.421875zm3.0062256 -4.71875l0 -1.359375l1.171875 0l0 1.359375l-1.171875 0zm0 8.1875l0 -6.90625l1.171875 0l0 6.90625l-1.171875 0zm2.945465 0l0 -6.90625l1.0625 0l0 0.984375q0.75 -1.140625 2.1875 -1.140625q0.625 0 1.15625 0.21875q0.53125 0.21875 0.78125 0.59375q0.265625 0.359375 0.375 0.859375q0.0625 0.328125 0.0625 1.140625l0 4.25l-1.171875 0l0 -4.203125q0 -0.71875 -0.140625 -1.0625q-0.140625 -0.359375 -0.484375 -0.5625q-0.34375 -0.21875 -0.8125 -0.21875q-0.75 0 -1.296875 0.46875q-0.546875 0.46875 -0.546875 1.796875l0 3.78125l-1.171875 0zm12.146851 -2.21875l1.203125 0.140625q-0.28125 1.0625 -1.0625 1.65625q-0.765625 0.578125 -1.96875 0.578125q-1.515625 0 -2.40625 -0.9375q-0.890625 -0.9375 -0.890625 -2.609375q0 -1.75 0.890625 -2.703125q0.90625 -0.96875 2.34375 -0.96875q1.390625 0 2.265625 0.9375q0.875 0.9375 0.875 2.65625q0 0.109375 0 0.3125l-5.15625 0q0.0625 1.140625 0.640625 1.75q0.578125 0.59375 1.4375 0.59375q0.65625 0 1.109375 -0.328125q0.453125 -0.34375 0.71875 -1.078125zm-3.84375 -1.90625l3.859375 0q-0.078125 -0.859375 -0.4375 -1.296875q-0.5625 -0.6875 -1.453125 -0.6875q-0.8125 0 -1.359375 0.546875q-0.546875 0.53125 -0.609375 1.4375zm6.5062256 4.125l0 -6.90625l1.0625 0l0 1.046875q0.40625 -0.734375 0.734375 -0.96875q0.34375 -0.234375 0.765625 -0.234375q0.59375 0 1.203125 0.375l-0.40625 1.078125q-0.4375 -0.25 -0.859375 -0.25q-0.390625 0 -0.703125 0.234375q-0.296875 0.234375 -0.421875 0.640625q-0.203125 0.625 -0.203125 1.359375l0 3.625l-1.171875 0zm8.156982 0l0 -9.546875l1.171875 0l0 3.421875q0.828125 -0.9375 2.078125 -0.9375q0.765625 0 1.328125 0.296875q0.5625 0.296875 0.8125 0.84375q0.25 0.53125 0.25 1.546875l0 4.375l-1.171875 0l0 -4.375q0 -0.890625 -0.390625 -1.28125q-0.375 -0.40625 -1.078125 -0.40625q-0.515625 0 -0.984375 0.28125q-0.453125 0.265625 -0.65625 0.734375q-0.1875 0.453125 -0.1875 1.265625l0 3.78125l-1.171875 0zm11.928101 -0.859375q-0.65625 0.5625 -1.265625 0.796875q-0.59375 0.21875 -1.28125 0.21875q-1.140625 0 -1.75 -0.546875q-0.609375 -0.5625 -0.609375 -1.4375q0 -0.5 0.21875 -0.921875q0.234375 -0.421875 0.609375 -0.671875q0.375 -0.25 0.84375 -0.390625q0.34375 -0.078125 1.046875 -0.171875q1.421875 -0.171875 2.09375 -0.40625q0 -0.234375 0 -0.296875q0 -0.71875 -0.328125 -1.015625q-0.453125 -0.390625 -1.34375 -0.390625q-0.8125 0 -1.21875 0.296875q-0.390625 0.28125 -0.578125 1.015625l-1.140625 -0.15625q0.15625 -0.734375 0.515625 -1.1875q0.359375 -0.453125 1.03125 -0.6875q0.671875 -0.25 1.5625 -0.25q0.890625 0 1.4375 0.203125q0.5625 0.203125 0.8125 0.53125q0.265625 0.3125 0.375 0.796875q0.046875 0.296875 0.046875 1.078125l0 1.5625q0 1.625 0.078125 2.0625q0.078125 0.4375 0.296875 0.828125l-1.21875 0q-0.1875 -0.359375 -0.234375 -0.859375zm-0.09375 -2.609375q-0.640625 0.265625 -1.921875 0.4375q-0.71875 0.109375 -1.015625 0.25q-0.296875 0.125 -0.46875 0.375q-0.15625 0.25 -0.15625 0.546875q0 0.46875 0.34375 0.78125q0.359375 0.3125 1.046875 0.3125q0.671875 0 1.203125 -0.296875q0.53125 -0.296875 0.78125 -0.8125q0.1875 -0.390625 0.1875 -1.171875l0 -0.421875zm2.9906006 3.46875l0 -6.90625l1.0625 0l0 0.984375q0.75 -1.140625 2.1875 -1.140625q0.625 0 1.15625 0.21875q0.53125 0.21875 0.78125 0.59375q0.265625 0.359375 0.375 0.859375q0.0625 0.328125 0.0625 1.140625l0 4.25l-1.171875 0l0 -4.203125q0 -0.71875 -0.140625 -1.0625q-0.140625 -0.359375 -0.484375 -0.5625q-0.34375 -0.21875 -0.8125 -0.21875q-0.75 0 -1.296875 0.46875q-0.546875 0.46875 -0.546875 1.796875l0 3.78125l-1.171875 0zm11.896866 0l0 -0.875q-0.65626526 1.03125 -1.9375153 1.03125q-0.8125 0 -1.515625 -0.453125q-0.6875 -0.453125 -1.078125 -1.265625q-0.375 -0.828125 -0.375 -1.890625q0 -1.03125 0.34375 -1.875q0.34375 -0.84375 1.03125 -1.28125q0.703125 -0.453125 1.546875 -0.453125q0.625 0 1.109375 0.265625q0.50001526 0.25 0.79689026 0.671875l0 -3.421875l1.171875 0l0 9.546875l-1.09375 0zm-3.7031403 -3.453125q0 1.328125 0.5625 1.984375q0.5625 0.65625 1.328125 0.65625q0.765625 0 1.296875 -0.625q0.53126526 -0.625 0.53126526 -1.90625q0 -1.421875 -0.54689026 -2.078125q-0.546875 -0.671875 -1.34375 -0.671875q-0.78125 0 -1.3125 0.640625q-0.515625 0.625 -0.515625 2.0zm6.615616 3.453125l0 -9.546875l1.171875 0l0 9.546875l-1.171875 0zm7.71109 -2.21875l1.203125 0.140625q-0.28125 1.0625 -1.0625 1.65625q-0.765625 0.578125 -1.96875 0.578125q-1.515625 0 -2.40625 -0.9375q-0.890625 -0.9375 -0.890625 -2.609375q0 -1.75 0.890625 -2.703125q0.90625 -0.96875 2.34375 -0.96875q1.390625 0 2.265625 0.9375q0.875 0.9375 0.875 2.65625q0 0.109375 0 0.3125l-5.15625 0q0.0625 1.140625 0.640625 1.75q0.578125 0.59375 1.4375 0.59375q0.65625 0 1.109375 -0.328125q0.453125 -0.34375 0.71875 -1.078125zm-3.84375 -1.90625l3.859375 0q-0.078125 -0.859375 -0.4375 -1.296875q-0.5625 -0.6875 -1.453125 -0.6875q-0.8125 0 -1.359375 0.546875q-0.546875 0.53125 -0.609375 1.4375zm6.5062256 4.125l0 -6.90625l1.0625 0l0 1.046875q0.40625 -0.734375 0.734375 -0.96875q0.34375 -0.234375 0.765625 -0.234375q0.59375 0 1.203125 0.375l-0.40625 1.078125q-0.4375 -0.25 -0.859375 -0.25q-0.390625 0 -0.703125 0.234375q-0.296875 0.234375 -0.421875 0.640625q-0.203125 0.625 -0.203125 1.359375l0 3.625l-1.171875 0z" fill-rule="nonzero"></path><path fill="#000000" fill-opacity="0.0" d="m238.39896 180.76509l39.055115 0l0 37.07086l-39.055115 0z" fill-rule="evenodd"></path><path stroke="#000000" stroke-width="2.0" stroke-linejoin="round" stroke-linecap="butt" d="m238.39896 180.76509l39.055115 0l0 37.07086l-39.055115 0z" fill-rule="evenodd"></path><path fill="#000000" d="m254.45038 204.10052l0 -9.546875l3.59375 0q1.09375 0 1.75 0.296875q0.65625 0.28125 1.03125 0.890625q0.375 0.609375 0.375 1.265625q0 0.609375 -0.34375 1.15625q-0.328125 0.53125 -0.984375 0.859375q0.859375 0.25 1.328125 0.875q0.46875 0.609375 0.46875 1.4375q0 0.671875 -0.296875 1.25q-0.28125 0.578125 -0.703125 0.890625q-0.40625 0.3125 -1.03125 0.46875q-0.625 0.15625 -1.546875 0.15625l-3.640625 0zm1.265625 -5.53125l2.0625 0q0.84375 0 1.203125 -0.109375q0.484375 -0.140625 0.71875 -0.46875q0.25 -0.34375 0.25 -0.84375q0 -0.46875 -0.234375 -0.828125q-0.21875 -0.359375 -0.640625 -0.5q-0.421875 -0.140625 -1.453125 -0.140625l-1.90625 0l0 2.890625zm0 4.40625l2.375 0q0.609375 0 0.859375 -0.046875q0.4375 -0.078125 0.734375 -0.25q0.296875 -0.1875 0.484375 -0.53125q0.1875 -0.359375 0.1875 -0.8125q0 -0.53125 -0.28125 -0.921875q-0.265625 -0.40625 -0.75 -0.5625q-0.484375 -0.15625 -1.40625 -0.15625l-2.203125 0l0 3.28125z" fill-rule="nonzero"></path><path fill="#000000" fill-opacity="0.0" d="m282.41208 141.64568l39.055115 0l0 37.07086l-39.055115 0z" fill-rule="evenodd"></path><path stroke="#000000" stroke-width="2.0" stroke-linejoin="round" stroke-linecap="butt" d="m282.41208 141.64568l39.055115 0l0 37.07086l-39.055115 0z" fill-rule="evenodd"></path><path fill="#000000" d="m304.95517 161.63734l1.265625 0.3125q-0.390625 1.5625 -1.421875 2.375q-1.03125 0.8125 -2.53125 0.8125q-1.53125 0 -2.5 -0.625q-0.96875 -0.625 -1.484375 -1.8125q-0.5 -1.1875 -0.5 -2.5625q0 -1.484375 0.5625 -2.59375q0.578125 -1.109375 1.625 -1.6875q1.0625 -0.578125 2.328125 -0.578125q1.421875 0 2.390625 0.734375q0.984375 0.71875 1.375 2.046875l-1.25 0.296875q-0.328125 -1.046875 -0.96875 -1.515625q-0.625 -0.484375 -1.578125 -0.484375q-1.09375 0 -1.84375 0.53125q-0.734375 0.53125 -1.03125 1.421875q-0.296875 0.875 -0.296875 1.828125q0 1.21875 0.34375 2.125q0.359375 0.90625 1.109375 1.359375q0.75 0.4375 1.625 0.4375q1.0625 0 1.796875 -0.609375q0.734375 -0.609375 0.984375 -1.8125z" fill-rule="nonzero"></path><path fill="#000000" fill-opacity="0.0" d="m194.23885 162.22835l39.055115 0l0 37.07086l-39.055115 0z" fill-rule="evenodd"></path><path stroke="#000000" stroke-width="2.0" stroke-linejoin="round" stroke-linecap="butt" d="m194.23885 162.22835l39.055115 0l0 37.07086l-39.055115 0z" fill-rule="evenodd"></path><path fill="#000000" d="m209.30591 185.56378l3.65625 -9.546875l1.359375 0l3.90625 9.546875l-1.4375 0l-1.109375 -2.890625l-3.984375 0l-1.046875 2.890625l-1.34375 0zm2.75 -3.921875l3.234375 0l-1.0 -2.640625q-0.453125 -1.203125 -0.671875 -1.96875q-0.1875 0.90625 -0.515625 1.8125l-1.046875 2.796875z" fill-rule="nonzero"></path><path fill="#000000" fill-opacity="0.0" d="m82.13123 187.25722l138.2362 59.590546" fill-rule="evenodd"></path><path stroke="#000000" stroke-width="2.0" stroke-linejoin="round" stroke-linecap="butt" stroke-dasharray="8.0,6.0" d="m82.13123 187.25722l138.2362 59.590546" fill-rule="evenodd"></path><path fill="#000000" fill-opacity="0.0" d="m192.29396 106.66929l145.16536 0l0 29.79528l-145.16536 0z" fill-rule="evenodd"></path><path fill="#000000" d="m201.27834 128.46928l3.65625 -9.546867l1.359375 0l3.90625 9.546867l-1.4375 0l-1.109375 -2.8906174l-3.984375 0l-1.046875 2.8906174l-1.34375 0zm2.75 -3.9218674l3.234375 0l-1.0 -2.640625q-0.453125 -1.203125 -0.671875 -1.96875q-0.1875 0.90625 -0.515625 1.8125l-1.046875 2.796875zm6.5616302 1.859375l1.15625 -0.1875q0.109375 0.703125 0.546875 1.078125q0.453125 0.359375 1.25 0.359375q0.8125 0 1.203125 -0.328125q0.390625 -0.328125 0.390625 -0.765625q0 -0.390625 -0.359375 -0.625q-0.234375 -0.15625 -1.1875 -0.390625q-1.296875 -0.328125 -1.796875 -0.5625q-0.484375 -0.25 -0.75 -0.65625q-0.25 -0.421875 -0.25 -0.9375q0 -0.453125 0.203125 -0.84375q0.21875 -0.40625 0.578125 -0.671875q0.28125 -0.1875 0.75 -0.328125q0.46875 -0.140625 1.015625 -0.140625q0.8125 0 1.421875 0.234375q0.609375 0.234375 0.90625 0.640625q0.296875 0.390625 0.40625 1.0625l-1.140625 0.15625q-0.078125 -0.53125 -0.453125 -0.828125q-0.375 -0.3125 -1.0625 -0.3125q-0.8125 0 -1.15625 0.265625q-0.34375 0.265625 -0.34375 0.625q0 0.234375 0.140625 0.421875q0.15625 0.1875 0.453125 0.3125q0.171875 0.0625 1.03125 0.296875q1.25 0.328125 1.734375 0.546875q0.5 0.203125 0.78125 0.609375q0.28125 0.40625 0.28125 1.0q0 0.59375 -0.34375 1.109375q-0.34375 0.5156174 -1.0 0.7968674q-0.640625 0.28125 -1.453125 0.28125q-1.34375 0 -2.046875 -0.5625q-0.703125 -0.5624924 -0.90625 -1.6562424zm6.6640625 0l1.15625 -0.1875q0.109375 0.703125 0.546875 1.078125q0.453125 0.359375 1.25 0.359375q0.8125 0 1.203125 -0.328125q0.390625 -0.328125 0.390625 -0.765625q0 -0.390625 -0.359375 -0.625q-0.234375 -0.15625 -1.1875 -0.390625q-1.296875 -0.328125 -1.796875 -0.5625q-0.484375 -0.25 -0.75 -0.65625q-0.25 -0.421875 -0.25 -0.9375q0 -0.453125 0.203125 -0.84375q0.21875 -0.40625 0.578125 -0.671875q0.28125 -0.1875 0.75 -0.328125q0.46875 -0.140625 1.015625 -0.140625q0.8125 0 1.421875 0.234375q0.609375 0.234375 0.90625 0.640625q0.296875 0.390625 0.40625 1.0625l-1.140625 0.15625q-0.078125 -0.53125 -0.453125 -0.828125q-0.375 -0.3125 -1.0625 -0.3125q-0.8125 0 -1.15625 0.265625q-0.34375 0.265625 -0.34375 0.625q0 0.234375 0.140625 0.421875q0.15625 0.1875 0.453125 0.3125q0.171875 0.0625 1.03125 0.296875q1.25 0.328125 1.734375 0.546875q0.5 0.203125 0.78125 0.609375q0.28125 0.40625 0.28125 1.0q0 0.59375 -0.34375 1.109375q-0.34375 0.5156174 -1.0 0.7968674q-0.640625 0.28125 -1.453125 0.28125q-1.34375 0 -2.046875 -0.5625q-0.703125 -0.5624924 -0.90625 -1.6562424zm7.1484375 -6.125l0 -1.359375l1.171875 0l0 1.359375l-1.171875 0zm0 8.187492l0 -6.9062424l1.171875 0l0 6.9062424l-1.171875 0zm2.726715 0.578125l1.140625 0.15625q0.078125 0.53125 0.40625 0.78125q0.4375 0.3125 1.1875 0.3125q0.8125 0 1.25 -0.328125q0.453125 -0.3125 0.609375 -0.90625q0.09375 -0.359375 0.078125 -1.4999924q-0.765625 0.9062424 -1.90625 0.9062424q-1.4375 0 -2.21875 -1.0312424q-0.78125 -1.03125 -0.78125 -2.46875q0 -0.984375 0.359375 -1.8125q0.359375 -0.84375 1.03125 -1.296875q0.6875 -0.453125 1.609375 -0.453125q1.21875 0 2.015625 0.984375l0 -0.828125l1.078125 0l0 5.96875q0 1.6093674 -0.328125 2.2812424q-0.328125 0.6875 -1.046875 1.078125q-0.703125 0.390625 -1.75 0.390625q-1.234375 0 -2.0 -0.5625q-0.75 -0.5625 -0.734375 -1.671875zm0.984375 -4.1562424q0 1.359375 0.53125 1.984375q0.546875 0.625 1.359375 0.625q0.796875 0 1.34375 -0.625q0.546875 -0.625 0.546875 -1.953125q0 -1.265625 -0.5625 -1.90625q-0.5625 -0.640625 -1.359375 -0.640625q-0.765625 0 -1.3125 0.640625q-0.546875 0.625 -0.546875 1.875zm6.6468506 3.5781174l0 -6.9062424l1.0625 0l0 0.984375q0.75 -1.140625 2.1875 -1.140625q0.625 0 1.15625 0.21875q0.53125 0.21875 0.78125 0.59375q0.265625 0.359375 0.375 0.859375q0.0625 0.328125 0.0625 1.140625l0 4.2499924l-1.171875 0l0 -4.2031174q0 -0.71875 -0.140625 -1.0625q-0.140625 -0.359375 -0.484375 -0.5625q-0.34375 -0.21875 -0.8125 -0.21875q-0.75 0 -1.296875 0.46875q-0.546875 0.46875 -0.546875 1.796875l0 3.7812424l-1.171875 0zm12.146851 -2.2187424l1.203125 0.140625q-0.28125 1.0625 -1.0625 1.6562424q-0.765625 0.578125 -1.96875 0.578125q-1.515625 0 -2.40625 -0.9374924q-0.890625 -0.9375 -0.890625 -2.609375q0 -1.75 0.890625 -2.703125q0.90625 -0.96875 2.34375 -0.96875q1.390625 0 2.265625 0.9375q0.875 0.9375 0.875 2.65625q0 0.109375 0 0.3125l-5.15625 0q0.0625 1.140625 0.640625 1.75q0.578125 0.59375 1.4375 0.59375q0.65625 0 1.109375 -0.328125q0.453125 -0.34375 0.71875 -1.078125zm-3.84375 -1.90625l3.859375 0q-0.078125 -0.859375 -0.4375 -1.296875q-0.5625 -0.6875 -1.453125 -0.6875q-0.8125 0 -1.359375 0.546875q-0.546875 0.53125 -0.609375 1.4375zm11.006226 4.1249924l0 -0.8749924q-0.65625 1.0312424 -1.9375 1.0312424q-0.8125 0 -1.515625 -0.453125q-0.6875 -0.45311737 -1.078125 -1.2656174q-0.375 -0.828125 -0.375 -1.890625q0 -1.03125 0.34375 -1.875q0.34375 -0.84375 1.03125 -1.28125q0.703125 -0.453125 1.546875 -0.453125q0.625 0 1.109375 0.265625q0.5 0.25 0.796875 0.671875l0 -3.421875l1.171875 0l0 9.546867l-1.09375 0zm-3.703125 -3.4531174q0 1.328125 0.5625 1.984375q0.5625 0.65625 1.328125 0.65625q0.765625 0 1.296875 -0.625q0.53125 -0.625 0.53125 -1.90625q0 -1.421875 -0.546875 -2.078125q-0.546875 -0.671875 -1.34375 -0.671875q-0.78125 0 -1.3125 0.640625q-0.515625 0.625 -0.515625 2.0zm14.8498535 0.921875l1.15625 0.15625q-0.1875 1.1875 -0.96875 1.859375q-0.78125 0.6718674 -1.921875 0.6718674q-1.40625 0 -2.28125 -0.9218674q-0.859375 -0.9375 -0.859375 -2.65625q0 -1.125 0.375 -1.96875q0.375 -0.84375 1.125 -1.25q0.765625 -0.421875 1.65625 -0.421875q1.125 0 1.84375 0.578125q0.71875 0.5625 0.921875 1.609375l-1.140625 0.171875q-0.171875 -0.703125 -0.59375 -1.046875q-0.40625 -0.359375 -0.984375 -0.359375q-0.890625 0 -1.453125 0.640625q-0.546875 0.640625 -0.546875 2.0q0 1.40625 0.53125 2.03125q0.546875 0.625 1.40625 0.625q0.6875 0 1.140625 -0.421875q0.46875 -0.421875 0.59375 -1.296875zm1.7109375 -0.921875q0 -1.921875 1.078125 -2.84375q0.890625 -0.765625 2.171875 -0.765625q1.421875 0 2.328125 0.9375q0.90625 0.921875 0.90625 2.578125q0 1.328125 -0.40625 2.09375q-0.390625 0.765625 -1.15625 1.1874924q-0.765625 0.421875 -1.671875 0.421875q-1.453125 0 -2.359375 -0.9218674q-0.890625 -0.9375 -0.890625 -2.6875zm1.203125 0q0 1.328125 0.578125 1.984375q0.59375 0.65625 1.46875 0.65625q0.875 0 1.453125 -0.65625q0.578125 -0.671875 0.578125 -2.03125q0 -1.28125 -0.59375 -1.9375q-0.578125 -0.65625 -1.4375 -0.65625q-0.875 0 -1.46875 0.65625q-0.578125 0.65625 -0.578125 1.984375zm6.6468506 3.4531174l0 -6.9062424l1.0625 0l0 0.984375q0.75 -1.140625 2.1875 -1.140625q0.625 0 1.15625 0.21875q0.53125 0.21875 0.78125 0.59375q0.265625 0.359375 0.375 0.859375q0.0625 0.328125 0.0625 1.140625l0 4.2499924l-1.171875 0l0 -4.2031174q0 -0.71875 -0.140625 -1.0625q-0.140625 -0.359375 -0.484375 -0.5625q-0.34375 -0.21875 -0.8125 -0.21875q-0.75 0 -1.296875 0.46875q-0.546875 0.46875 -0.546875 1.796875l0 3.7812424l-1.171875 0zm9.974976 -1.0468674l0.171875 1.0312424q-0.5 0.109375 -0.890625 0.109375q-0.640625 0 -1.0 -0.203125q-0.34375 -0.203125 -0.484375 -0.5312424q-0.140625 -0.328125 -0.140625 -1.390625l0 -3.96875l-0.859375 0l0 -0.90625l0.859375 0l0 -1.71875l1.171875 -0.703125l0 2.421875l1.171875 0l0 0.90625l-1.171875 0l0 4.046875q0 0.5 0.046875 0.640625q0.0625 0.140625 0.203125 0.234375q0.140625 0.078125 0.40625 0.078125q0.203125 0 0.515625 -0.046875zm5.6560974 0.1875q-0.65625 0.5624924 -1.265625 0.7968674q-0.59375 0.21875 -1.28125 0.21875q-1.140625 0 -1.75 -0.546875q-0.609375 -0.5624924 -0.609375 -1.4374924q0 -0.5 0.21875 -0.921875q0.234375 -0.421875 0.609375 -0.671875q0.375 -0.25 0.84375 -0.390625q0.34375 -0.078125 1.046875 -0.171875q1.421875 -0.171875 2.09375 -0.40625q0 -0.234375 0 -0.296875q0 -0.71875 -0.328125 -1.015625q-0.453125 -0.390625 -1.34375 -0.390625q-0.8125 0 -1.21875 0.296875q-0.390625 0.28125 -0.578125 1.015625l-1.140625 -0.15625q0.15625 -0.734375 0.515625 -1.1875q0.359375 -0.453125 1.03125 -0.6875q0.671875 -0.25 1.5625 -0.25q0.890625 0 1.4375 0.203125q0.5625 0.203125 0.8125 0.53125q0.265625 0.3125 0.375 0.796875q0.046875 0.296875 0.046875 1.078125l0 1.5625q0 1.625 0.078125 2.0625q0.078125 0.43749237 0.296875 0.8281174l-1.21875 0q-0.1875 -0.359375 -0.234375 -0.8593674zm-0.09375 -2.609375q-0.640625 0.265625 -1.921875 0.4375q-0.71875 0.109375 -1.015625 0.25q-0.296875 0.125 -0.46875 0.375q-0.15625 0.25 -0.15625 0.546875q0 0.46875 0.34375 0.78125q0.359375 0.3125 1.046875 0.3125q0.671875 0 1.203125 -0.296875q0.53125 -0.296875 0.78125 -0.8125q0.1875 -0.390625 0.1875 -1.171875l0 -0.421875zm3.0062256 -4.71875l0 -1.359375l1.171875 0l0 1.359375l-1.171875 0zm0 8.187492l0 -6.9062424l1.171875 0l0 6.9062424l-1.171875 0zm2.945465 0l0 -6.9062424l1.0625 0l0 0.984375q0.75 -1.140625 2.1875 -1.140625q0.625 0 1.15625 0.21875q0.53125 0.21875 0.78125 0.59375q0.265625 0.359375 0.375 0.859375q0.0625 0.328125 0.0625 1.140625l0 4.2499924l-1.171875 0l0 -4.2031174q0 -0.71875 -0.140625 -1.0625q-0.140625 -0.359375 -0.484375 -0.5625q-0.34375 -0.21875 -0.8125 -0.21875q-0.75 0 -1.296875 0.46875q-0.546875 0.46875 -0.546875 1.796875l0 3.7812424l-1.171875 0zm12.146851 -2.2187424l1.203125 0.140625q-0.28125 1.0625 -1.0625 1.6562424q-0.765625 0.578125 -1.96875 0.578125q-1.515625 0 -2.40625 -0.9374924q-0.890625 -0.9375 -0.890625 -2.609375q0 -1.75 0.890625 -2.703125q0.90625 -0.96875 2.34375 -0.96875q1.390625 0 2.265625 0.9375q0.875 0.9375 0.875 2.65625q0 0.109375 0 0.3125l-5.15625 0q0.0625 1.140625 0.640625 1.75q0.578125 0.59375 1.4375 0.59375q0.65625 0 1.109375 -0.328125q0.453125 -0.34375 0.71875 -1.078125zm-3.84375 -1.90625l3.859375 0q-0.078125 -0.859375 -0.4375 -1.296875q-0.5625 -0.6875 -1.453125 -0.6875q-0.8125 0 -1.359375 0.546875q-0.546875 0.53125 -0.609375 1.4375zm6.5062256 4.1249924l0 -6.9062424l1.0625 0l0 1.046875q0.40625 -0.734375 0.734375 -0.96875q0.34375 -0.234375 0.765625 -0.234375q0.59375 0 1.203125 0.375l-0.40625 1.078125q-0.4375 -0.25 -0.859375 -0.25q-0.390625 0 -0.703125 0.234375q-0.296875 0.234375 -0.421875 0.640625q-0.203125 0.625 -0.203125 1.359375l0 3.6249924l-1.171875 0zm3.98526 -2.0624924l1.15625 -0.1875q0.109375 0.703125 0.546875 1.078125q0.453125 0.359375 1.25 0.359375q0.8125 0 1.203125 -0.328125q0.390625 -0.328125 0.390625 -0.765625q0 -0.390625 -0.359375 -0.625q-0.234375 -0.15625 -1.1875 -0.390625q-1.296875 -0.328125 -1.796875 -0.5625q-0.484375 -0.25 -0.75 -0.65625q-0.25 -0.421875 -0.25 -0.9375q0 -0.453125 0.203125 -0.84375q0.21875 -0.40625 0.578125 -0.671875q0.28125 -0.1875 0.75 -0.328125q0.46875 -0.140625 1.015625 -0.140625q0.8125 0 1.421875 0.234375q0.609375 0.234375 0.90625 0.640625q0.296875 0.390625 0.40625 1.0625l-1.140625 0.15625q-0.078125 -0.53125 -0.453125 -0.828125q-0.375 -0.3125 -1.0625 -0.3125q-0.8125 0 -1.15625 0.265625q-0.34375 0.265625 -0.34375 0.625q0 0.234375 0.140625 0.421875q0.15625 0.1875 0.453125 0.3125q0.171875 0.0625 1.03125 0.296875q1.25 0.328125 1.734375 0.546875q0.5 0.203125 0.78125 0.609375q0.28125 0.40625 0.28125 1.0q0 0.59375 -0.34375 1.109375q-0.34375 0.5156174 -1.0 0.7968674q-0.640625 0.28125 -1.453125 0.28125q-1.34375 0 -2.046875 -0.5625q-0.703125 -0.5624924 -0.90625 -1.6562424z" fill-rule="nonzero"></path><path fill="#000000" fill-opacity="0.0" d="m287.48557 265.3832l180.28348 0l0 -26.5197" fill-rule="evenodd"></path><path stroke="#000000" stroke-width="2.0" stroke-linejoin="round" stroke-linecap="butt" d="m287.48557 265.3832l180.28348 0l0 -26.5197" fill-rule="evenodd"></path><path fill="#000000" fill-opacity="0.0" d="m190.74104 327.4574l0 0c-1.3809967 -5.454834 3.1531067 -10.854797 11.678299 -13.908478c8.5252075 -3.0536804 19.546371 -3.225525 28.386826 -0.44262695l0 0c3.1315613 -3.1716614 8.86322 -5.3614807 15.461288 -5.907074c6.598053 -0.54559326 13.287537 0.61712646 18.044983 3.1364746l0 0c2.667694 -2.8756409 7.905731 -4.8077087 13.855408 -5.1105957c5.9496765 -0.30288696 11.768982 1.0662537 15.392883 3.6216125l0 0c4.8195496 -3.0481873 12.48761 -4.3315735 19.686127 -3.2948914c7.198517 1.0366821 12.634613 4.2072754 13.956024 8.139862l0 0c5.904785 0.86569214 10.823334 3.0663757 13.484863 6.0335083c2.66156 2.9671326 2.8049622 6.409607 0.393219 9.438019l0 0c5.814514 4.0674744 7.174652 9.487335 3.5729065 14.2369995c-3.6017761 4.7496643 -11.624329 8.11554 -21.073822 8.841522c-0.066589355 4.457733 -4.615082 8.548065 -11.892273 10.694458c-7.2771606 2.1463928 -16.146698 2.0136414 -23.18985 -0.34710693c-3.0000305 5.3388977 -11.444061 9.267212 -21.68396 10.087769c-10.239929 0.8205261 -20.440033 -1.6137695 -26.193497 -6.2512207c-7.052536 2.285797 -15.514999 2.944275 -23.478409 1.8268738c-7.9634247 -1.1174316 -14.757004 -3.9165955 -18.848251 -7.766083l0 0c-7.2068024 0.4532776 -14.174789 -1.5536194 -17.44577 -5.0246887c-3.2709808 -3.4710999 -2.1486359 -7.66745 2.8100128 -10.506409l0 0c-6.428665 -2.033722 -9.708954 -6.069275 -8.130325 -10.002289c1.5786133 -3.933014 7.658432 -6.8722534 15.069046 -7.2850037z" fill-rule="evenodd"></path><path fill="#000000" fill-opacity="0.0" d="m183.65987 344.95493l0 0c3.0337067 0.9597168 6.5383453 1.39505 10.0433655 1.2475891m4.5908203 14.283844c1.5072784 -0.0947876 2.9847107 -0.29556274 4.3941803 -0.5970764m37.930374 6.5360413c-1.0601349 -0.8544922 -1.9477234 -1.7675781 -2.6476593 -2.723755m50.526947 -1.112915l0 0c0.54693604 -0.97335815 0.90130615 -1.9751587 1.05719 -2.988678m34.02362 -7.3583374c0.070892334 -4.7459106 -4.944275 -9.091339 -12.891327 -11.169769m30.39206 -11.908234c-1.2869873 1.6160889 -3.2517395 3.0496826 -5.740204 4.1884155m-8.136688 -19.66037l0 0c0.21929932 0.6525879 0.32077026 1.3150024 0.30307007 1.9780579m-33.94464 -6.8228455l0 0c-1.20224 0.760376 -2.192749 1.6100769 -2.9406433 2.522644m-26.307892 -1.0339966l0 0c-0.64071655 0.6906433 -1.1191406 1.4214478 -1.4242859 2.1755981m-32.082504 0.5950928l0 0c1.870636 0.5888672 3.6012268 1.2976074 5.153763 2.1106873m-45.21837 12.2404785l0 0c0.19033813 0.75183105 0.49108887 1.4943542 0.89941406 2.2207031" fill-rule="evenodd"></path><path stroke="#000000" stroke-width="2.0" stroke-linejoin="round" stroke-linecap="butt" d="m190.74104 327.4574l0 0c-1.3809967 -5.454834 3.1531067 -10.854797 11.678299 -13.908478c8.5252075 -3.0536804 19.546371 -3.225525 28.386826 -0.44262695l0 0c3.1315613 -3.1716614 8.86322 -5.3614807 15.461288 -5.907074c6.598053 -0.54559326 13.287537 0.61712646 18.044983 3.1364746l0 0c2.667694 -2.8756409 7.905731 -4.8077087 13.855408 -5.1105957c5.9496765 -0.30288696 11.768982 1.0662537 15.392883 3.6216125l0 0c4.8195496 -3.0481873 12.48761 -4.3315735 19.686127 -3.2948914c7.198517 1.0366821 12.634613 4.2072754 13.956024 8.139862l0 0c5.904785 0.86569214 10.823334 3.0663757 13.484863 6.0335083c2.66156 2.9671326 2.8049622 6.409607 0.393219 9.438019l0 0c5.814514 4.0674744 7.174652 9.487335 3.5729065 14.2369995c-3.6017761 4.7496643 -11.624329 8.11554 -21.073822 8.841522c-0.066589355 4.457733 -4.615082 8.548065 -11.892273 10.694458c-7.2771606 2.1463928 -16.146698 2.0136414 -23.18985 -0.34710693c-3.0000305 5.3388977 -11.444061 9.267212 -21.68396 10.087769c-10.239929 0.8205261 -20.440033 -1.6137695 -26.193497 -6.2512207c-7.052536 2.285797 -15.514999 2.944275 -23.478409 1.8268738c-7.9634247 -1.1174316 -14.757004 -3.9165955 -18.848251 -7.766083l0 0c-7.2068024 0.4532776 -14.174789 -1.5536194 -17.44577 -5.0246887c-3.2709808 -3.4710999 -2.1486359 -7.66745 2.8100128 -10.506409l0 0c-6.428665 -2.033722 -9.708954 -6.069275 -8.130325 -10.002289c1.5786133 -3.933014 7.658432 -6.8722534 15.069046 -7.2850037z" fill-rule="evenodd"></path><path stroke="#000000" stroke-width="2.0" stroke-linejoin="round" stroke-linecap="butt" d="m183.65987 344.95493l0 0c3.0337067 0.9597168 6.5383453 1.39505 10.0433655 1.2475891m4.5908203 14.283844c1.5072784 -0.0947876 2.9847107 -0.29556274 4.3941803 -0.5970764m37.930374 6.5360413c-1.0601349 -0.8544922 -1.9477234 -1.7675781 -2.6476593 -2.723755m50.526947 -1.112915l0 0c0.54693604 -0.97335815 0.90130615 -1.9751587 1.05719 -2.988678m34.02362 -7.3583374c0.070892334 -4.7459106 -4.944275 -9.091339 -12.891327 -11.169769m30.39206 -11.908234c-1.2869873 1.6160889 -3.2517395 3.0496826 -5.740204 4.1884155m-8.136688 -19.66037l0 0c0.21929932 0.6525879 0.32077026 1.3150024 0.30307007 1.9780579m-33.94464 -6.8228455l0 0c-1.20224 0.760376 -2.192749 1.6100769 -2.9406433 2.522644m-26.307892 -1.0339966l0 0c-0.64071655 0.6906433 -1.1191406 1.4214478 -1.4242859 2.1755981m-32.082504 0.5950928l0 0c1.870636 0.5888672 3.6012268 1.2976074 5.153763 2.1106873m-45.21837 12.2404785l0 0c0.19033813 0.75183105 0.49108887 1.4943542 0.89941406 2.2207031" fill-rule="evenodd"></path><path fill="#000000" fill-opacity="0.0" d="m261.4042 314.9239l39.055115 0l0 37.07086l-39.055115 0z" fill-rule="evenodd"></path><path stroke="#000000" stroke-width="2.0" stroke-linejoin="round" stroke-linecap="butt" d="m261.4042 314.9239l39.055115 0l0 37.07086l-39.055115 0z" fill-rule="evenodd"></path><path fill="#000000" d="m280.30365 335.91556q-0.015625 -0.234375 -0.015625 -0.359375q0 -0.6875 0.203125 -1.1875q0.140625 -0.375 0.453125 -0.765625q0.234375 -0.28125 0.84375 -0.8125q0.609375 -0.53125 0.78125 -0.84375q0.1875 -0.328125 0.1875 -0.703125q0 -0.6875 -0.53125 -1.203125q-0.53125 -0.515625 -1.296875 -0.515625q-0.75 0 -1.25 0.46875q-0.5 0.46875 -0.65625 1.453125l-1.21875 -0.140625q0.171875 -1.328125 0.96875 -2.03125q0.8125 -0.71875 2.125 -0.71875q1.40625 0 2.234375 0.765625q0.828125 0.75 0.828125 1.84375q0 0.625 -0.296875 1.15625q-0.28125 0.515625 -1.140625 1.265625q-0.5625 0.515625 -0.75 0.765625q-0.171875 0.234375 -0.265625 0.546875q-0.078125 0.3125 -0.078125 1.015625l-1.125 0zm-0.078125 2.34375l0 -1.328125l1.328125 0l0 1.328125l-1.328125 0z" fill-rule="nonzero"></path><path fill="#000000" fill-opacity="0.0" d="m212.36745 320.23883l39.05513 0l0 37.070892l-39.05513 0z" fill-rule="evenodd"></path><path stroke="#000000" stroke-width="2.0" stroke-linejoin="round" stroke-linecap="butt" d="m212.36745 320.23883l39.05513 0l0 37.070892l-39.05513 0z" fill-rule="evenodd"></path><path fill="#000000" d="m231.2669 341.23053q-0.015625 -0.234375 -0.015625 -0.359375q0 -0.6875 0.203125 -1.1875q0.140625 -0.375 0.453125 -0.765625q0.234375 -0.28125 0.84375 -0.8125q0.609375 -0.53125 0.78125 -0.84375q0.1875 -0.328125 0.1875 -0.703125q0 -0.6875 -0.53125 -1.203125q-0.53125 -0.515625 -1.296875 -0.515625q-0.75 0 -1.25 0.46875q-0.5 0.46875 -0.65625 1.453125l-1.21875 -0.140625q0.171875 -1.328125 0.96875 -2.03125q0.8125 -0.71875 2.125 -0.71875q1.40625 0 2.234375 0.765625q0.828125 0.75 0.828125 1.84375q0 0.625 -0.296875 1.15625q-0.28125 0.515625 -1.140625 1.265625q-0.5625 0.515625 -0.75 0.765625q-0.171875 0.234375 -0.265625 0.546875q-0.078125 0.3125 -0.078125 1.015625l-1.125 0zm-0.078125 2.34375l0 -1.328125l1.328125 0l0 1.328125l-1.328125 0z" fill-rule="nonzero"></path><path fill="#000000" fill-opacity="0.0" d="m184.29396 279.9475l162.26772 0l0 29.795258l-162.26772 0z" fill-rule="evenodd"></path><path fill="#000000" d="m200.57521 292.20062l1.265625 0l0 5.515625q0 1.4375 -0.328125 2.296875q-0.3125 0.84375 -1.171875 1.375q-0.84375 0.515625 -2.21875 0.515625q-1.34375 0 -2.203125 -0.453125q-0.84375 -0.46875 -1.21875 -1.34375q-0.359375 -0.875 -0.359375 -2.390625l0 -5.515625l1.265625 0l0 5.515625q0 1.234375 0.21875 1.828125q0.234375 0.59375 0.796875 0.921875q0.5625 0.3125 1.390625 0.3125q1.390625 0 1.96875 -0.625q0.59375 -0.640625 0.59375 -2.4375l0 -5.515625zm3.2189026 9.546875l0 -6.90625l1.0625 0l0 0.984375q0.75 -1.140625 2.1875 -1.140625q0.625 0 1.15625 0.21875q0.53125 0.21875 0.78125 0.59375q0.265625 0.359375 0.375 0.859375q0.0625 0.328125 0.0625 1.140625l0 4.25l-1.171875 0l0 -4.203125q0 -0.71875 -0.140625 -1.0625q-0.140625 -0.359375 -0.484375 -0.5625q-0.34375 -0.21875 -0.8125 -0.21875q-0.75 0 -1.296875 0.46875q-0.546875 0.46875 -0.546875 1.796875l0 3.78125l-1.171875 0zm11.928101 -0.859375q-0.65625 0.5625 -1.265625 0.796875q-0.59375 0.21875 -1.28125 0.21875q-1.140625 0 -1.75 -0.546875q-0.609375 -0.5625 -0.609375 -1.4375q0 -0.5 0.21875 -0.921875q0.234375 -0.421875 0.609375 -0.671875q0.375 -0.25 0.84375 -0.390625q0.34375 -0.078125 1.046875 -0.171875q1.421875 -0.171875 2.09375 -0.40625q0 -0.234375 0 -0.296875q0 -0.71875 -0.328125 -1.015625q-0.453125 -0.390625 -1.34375 -0.390625q-0.8125 0 -1.21875 0.296875q-0.390625 0.28125 -0.578125 1.015625l-1.140625 -0.15625q0.15625 -0.734375 0.515625 -1.1875q0.359375 -0.453125 1.03125 -0.6875q0.671875 -0.25 1.5625 -0.25q0.890625 0 1.4375 0.203125q0.5625 0.203125 0.8125 0.53125q0.265625 0.3125 0.375 0.796875q0.046875 0.296875 0.046875 1.078125l0 1.5625q0 1.625 0.078125 2.0625q0.078125 0.4375 0.296875 0.828125l-1.21875 0q-0.1875 -0.359375 -0.234375 -0.859375zm-0.09375 -2.609375q-0.640625 0.265625 -1.921875 0.4375q-0.71875 0.109375 -1.015625 0.25q-0.296875 0.125 -0.46875 0.375q-0.15625 0.25 -0.15625 0.546875q0 0.46875 0.34375 0.78125q0.359375 0.3125 1.046875 0.3125q0.671875 0 1.203125 -0.296875q0.53125 -0.296875 0.78125 -0.8125q0.1875 -0.390625 0.1875 -1.171875l0 -0.421875zm2.5218506 1.40625l1.15625 -0.1875q0.109375 0.703125 0.546875 1.078125q0.453125 0.359375 1.25 0.359375q0.8125 0 1.203125 -0.328125q0.390625 -0.328125 0.390625 -0.765625q0 -0.390625 -0.359375 -0.625q-0.234375 -0.15625 -1.1875 -0.390625q-1.296875 -0.328125 -1.796875 -0.5625q-0.484375 -0.25 -0.75 -0.65625q-0.25 -0.421875 -0.25 -0.9375q0 -0.453125 0.203125 -0.84375q0.21875 -0.40625 0.578125 -0.671875q0.28125 -0.1875 0.75 -0.328125q0.46875 -0.140625 1.015625 -0.140625q0.8125 0 1.421875 0.234375q0.609375 0.234375 0.90625 0.640625q0.296875 0.390625 0.40625 1.0625l-1.140625 0.15625q-0.078125 -0.53125 -0.453125 -0.828125q-0.375 -0.3125 -1.0625 -0.3125q-0.8125 0 -1.15625 0.265625q-0.34375 0.265625 -0.34375 0.625q0 0.234375 0.140625 0.421875q0.15625 0.1875 0.453125 0.3125q0.171875 0.0625 1.03125 0.296875q1.25 0.328125 1.734375 0.546875q0.5 0.203125 0.78125 0.609375q0.28125 0.40625 0.28125 1.0q0 0.59375 -0.34375 1.109375q-0.34375 0.515625 -1.0 0.796875q-0.640625 0.28125 -1.453125 0.28125q-1.34375 0 -2.046875 -0.5625q-0.703125 -0.5625 -0.90625 -1.65625zm6.6640625 0l1.15625 -0.1875q0.109375 0.703125 0.546875 1.078125q0.453125 0.359375 1.25 0.359375q0.8125 0 1.203125 -0.328125q0.390625 -0.328125 0.390625 -0.765625q0 -0.390625 -0.359375 -0.625q-0.234375 -0.15625 -1.1875 -0.390625q-1.296875 -0.328125 -1.796875 -0.5625q-0.484375 -0.25 -0.75 -0.65625q-0.25 -0.421875 -0.25 -0.9375q0 -0.453125 0.203125 -0.84375q0.21875 -0.40625 0.578125 -0.671875q0.28125 -0.1875 0.75 -0.328125q0.46875 -0.140625 1.015625 -0.140625q0.8125 0 1.421875 0.234375q0.609375 0.234375 0.90625 0.640625q0.296875 0.390625 0.40625 1.0625l-1.140625 0.15625q-0.078125 -0.53125 -0.453125 -0.828125q-0.375 -0.3125 -1.0625 -0.3125q-0.8125 0 -1.15625 0.265625q-0.34375 0.265625 -0.34375 0.625q0 0.234375 0.140625 0.421875q0.15625 0.1875 0.453125 0.3125q0.171875 0.0625 1.03125 0.296875q1.25 0.328125 1.734375 0.546875q0.5 0.203125 0.78125 0.609375q0.28125 0.40625 0.28125 1.0q0 0.59375 -0.34375 1.109375q-0.34375 0.515625 -1.0 0.796875q-0.640625 0.28125 -1.453125 0.28125q-1.34375 0 -2.046875 -0.5625q-0.703125 -0.5625 -0.90625 -1.65625zm7.1484375 -6.125l0 -1.359375l1.171875 0l0 1.359375l-1.171875 0zm0 8.1875l0 -6.90625l1.171875 0l0 6.90625l-1.171875 0zm2.726715 0.578125l1.140625 0.15625q0.078125 0.53125 0.40625 0.78125q0.4375 0.3125 1.1875 0.3125q0.8125 0 1.25 -0.328125q0.453125 -0.3125 0.609375 -0.90625q0.09375 -0.359375 0.078125 -1.5q-0.765625 0.90625 -1.90625 0.90625q-1.4375 0 -2.21875 -1.03125q-0.78125 -1.03125 -0.78125 -2.46875q0 -0.984375 0.359375 -1.8125q0.359375 -0.84375 1.03125 -1.296875q0.6875 -0.453125 1.609375 -0.453125q1.21875 0 2.015625 0.984375l0 -0.828125l1.078125 0l0 5.96875q0 1.609375 -0.328125 2.28125q-0.328125 0.6875 -1.046875 1.078125q-0.703125 0.390625 -1.75 0.390625q-1.234375 0 -2.0 -0.5625q-0.75 -0.5625 -0.734375 -1.671875zm0.984375 -4.15625q0 1.359375 0.53125 1.984375q0.546875 0.625 1.359375 0.625q0.796875 0 1.34375 -0.625q0.546875 -0.625 0.546875 -1.953125q0 -1.265625 -0.5625 -1.90625q-0.5625 -0.640625 -1.359375 -0.640625q-0.765625 0 -1.3125 0.640625q-0.546875 0.625 -0.546875 1.875zm6.6468506 3.578125l0 -6.90625l1.0625 0l0 0.984375q0.75 -1.140625 2.1875 -1.140625q0.625 0 1.15625 0.21875q0.53125 0.21875 0.78125 0.59375q0.265625 0.359375 0.375 0.859375q0.0625 0.328125 0.0625 1.140625l0 4.25l-1.171875 0l0 -4.203125q0 -0.71875 -0.140625 -1.0625q-0.140625 -0.359375 -0.484375 -0.5625q-0.34375 -0.21875 -0.8125 -0.21875q-0.75 0 -1.296875 0.46875q-0.546875 0.46875 -0.546875 1.796875l0 3.78125l-1.171875 0zm12.146851 -2.21875l1.203125 0.140625q-0.28125 1.0625 -1.0625 1.65625q-0.765625 0.578125 -1.96875 0.578125q-1.515625 0 -2.40625 -0.9375q-0.890625 -0.9375 -0.890625 -2.609375q0 -1.75 0.890625 -2.703125q0.90625 -0.96875 2.34375 -0.96875q1.390625 0 2.265625 0.9375q0.875 0.9375 0.875 2.65625q0 0.109375 0 0.3125l-5.15625 0q0.0625 1.140625 0.640625 1.75q0.578125 0.59375 1.4375 0.59375q0.65625 0 1.109375 -0.328125q0.453125 -0.34375 0.71875 -1.078125zm-3.84375 -1.90625l3.859375 0q-0.078125 -0.859375 -0.4375 -1.296875q-0.5625 -0.6875 -1.453125 -0.6875q-0.8125 0 -1.359375 0.546875q-0.546875 0.53125 -0.609375 1.4375zm11.006241 4.125l0 -0.875q-0.65625 1.03125 -1.9375 1.03125q-0.8125 0 -1.515625 -0.453125q-0.6875 -0.453125 -1.078125 -1.265625q-0.375 -0.828125 -0.375 -1.890625q0 -1.03125 0.34375 -1.875q0.34375 -0.84375 1.03125 -1.28125q0.703125 -0.453125 1.546875 -0.453125q0.625 0 1.109375 0.265625q0.5 0.25 0.796875 0.671875l0 -3.421875l1.171875 0l0 9.546875l-1.09375 0zm-3.703125 -3.453125q0 1.328125 0.5625 1.984375q0.5625 0.65625 1.328125 0.65625q0.765625 0 1.296875 -0.625q0.53125 -0.625 0.53125 -1.90625q0 -1.421875 -0.546875 -2.078125q-0.546875 -0.671875 -1.34375 -0.671875q-0.78125 0 -1.3125 0.640625q-0.515625 0.625 -0.515625 2.0zm14.849823 0.921875l1.15625 0.15625q-0.1875 1.1875 -0.96875 1.859375q-0.78125 0.671875 -1.921875 0.671875q-1.40625 0 -2.28125 -0.921875q-0.859375 -0.9375 -0.859375 -2.65625q0 -1.125 0.375 -1.96875q0.375 -0.84375 1.125 -1.25q0.765625 -0.421875 1.65625 -0.421875q1.125 0 1.84375 0.578125q0.71875 0.5625 0.921875 1.609375l-1.140625 0.171875q-0.171875 -0.703125 -0.59375 -1.046875q-0.40625 -0.359375 -0.984375 -0.359375q-0.890625 0 -1.453125 0.640625q-0.546875 0.640625 -0.546875 2.0q0 1.40625 0.53125 2.03125q0.546875 0.625 1.40625 0.625q0.6875 0 1.140625 -0.421875q0.46875 -0.421875 0.59375 -1.296875zm1.7109375 -0.921875q0 -1.921875 1.078125 -2.84375q0.890625 -0.765625 2.171875 -0.765625q1.421875 0 2.328125 0.9375q0.90625 0.921875 0.90625 2.578125q0 1.328125 -0.40625 2.09375q-0.390625 0.765625 -1.15625 1.1875q-0.765625 0.421875 -1.671875 0.421875q-1.453125 0 -2.359375 -0.921875q-0.890625 -0.9375 -0.890625 -2.6875zm1.203125 0q0 1.328125 0.578125 1.984375q0.59375 0.65625 1.46875 0.65625q0.875 0 1.453125 -0.65625q0.578125 -0.671875 0.578125 -2.03125q0 -1.28125 -0.59375 -1.9375q-0.578125 -0.65625 -1.4375 -0.65625q-0.875 0 -1.46875 0.65625q-0.578125 0.65625 -0.578125 1.984375zm6.6468506 3.453125l0 -6.90625l1.0625 0l0 0.984375q0.75 -1.140625 2.1875 -1.140625q0.625 0 1.15625 0.21875q0.53125 0.21875 0.78125 0.59375q0.265625 0.359375 0.375 0.859375q0.0625 0.328125 0.0625 1.140625l0 4.25l-1.171875 0l0 -4.203125q0 -0.71875 -0.140625 -1.0625q-0.140625 -0.359375 -0.484375 -0.5625q-0.34375 -0.21875 -0.8125 -0.21875q-0.75 0 -1.296875 0.46875q-0.546875 0.46875 -0.546875 1.796875l0 3.78125l-1.171875 0zm9.974976 -1.046875l0.171875 1.03125q-0.5 0.109375 -0.890625 0.109375q-0.640625 0 -1.0 -0.203125q-0.34375 -0.203125 -0.484375 -0.53125q-0.140625 -0.328125 -0.140625 -1.390625l0 -3.96875l-0.859375 0l0 -0.90625l0.859375 0l0 -1.71875l1.171875 -0.703125l0 2.421875l1.171875 0l0 0.90625l-1.171875 0l0 4.046875q0 0.5 0.046875 0.640625q0.0625 0.140625 0.203125 0.234375q0.140625 0.078125 0.40625 0.078125q0.203125 0 0.515625 -0.046875zm5.656128 0.1875q-0.65625 0.5625 -1.265625 0.796875q-0.59375 0.21875 -1.28125 0.21875q-1.140625 0 -1.75 -0.546875q-0.609375 -0.5625 -0.609375 -1.4375q0 -0.5 0.21875 -0.921875q0.234375 -0.421875 0.609375 -0.671875q0.375 -0.25 0.84375 -0.390625q0.34375 -0.078125 1.046875 -0.171875q1.421875 -0.171875 2.09375 -0.40625q0 -0.234375 0 -0.296875q0 -0.71875 -0.328125 -1.015625q-0.453125 -0.390625 -1.34375 -0.390625q-0.8125 0 -1.21875 0.296875q-0.390625 0.28125 -0.578125 1.015625l-1.140625 -0.15625q0.15625 -0.734375 0.515625 -1.1875q0.359375 -0.453125 1.03125 -0.6875q0.671875 -0.25 1.5625 -0.25q0.890625 0 1.4375 0.203125q0.5625 0.203125 0.8125 0.53125q0.265625 0.3125 0.375 0.796875q0.046875 0.296875 0.046875 1.078125l0 1.5625q0 1.625 0.078125 2.0625q0.078125 0.4375 0.296875 0.828125l-1.21875 0q-0.1875 -0.359375 -0.234375 -0.859375zm-0.09375 -2.609375q-0.640625 0.265625 -1.921875 0.4375q-0.71875 0.109375 -1.015625 0.25q-0.296875 0.125 -0.46875 0.375q-0.15625 0.25 -0.15625 0.546875q0 0.46875 0.34375 0.78125q0.359375 0.3125 1.046875 0.3125q0.671875 0 1.203125 -0.296875q0.53125 -0.296875 0.78125 -0.8125q0.1875 -0.390625 0.1875 -1.171875l0 -0.421875zm3.0062256 -4.71875l0 -1.359375l1.171875 0l0 1.359375l-1.171875 0zm0 8.1875l0 -6.90625l1.171875 0l0 6.90625l-1.171875 0zm2.945465 0l0 -6.90625l1.0625 0l0 0.984375q0.75 -1.140625 2.1875 -1.140625q0.625 0 1.15625 0.21875q0.53125 0.21875 0.78125 0.59375q0.265625 0.359375 0.375 0.859375q0.0625 0.328125 0.0625 1.140625l0 4.25l-1.171875 0l0 -4.203125q0 -0.71875 -0.140625 -1.0625q-0.140625 -0.359375 -0.484375 -0.5625q-0.34375 -0.21875 -0.8125 -0.21875q-0.75 0 -1.296875 0.46875q-0.546875 0.46875 -0.546875 1.796875l0 3.78125l-1.171875 0zm12.146851 -2.21875l1.203125 0.140625q-0.28125 1.0625 -1.0625 1.65625q-0.765625 0.578125 -1.96875 0.578125q-1.515625 0 -2.40625 -0.9375q-0.890625 -0.9375 -0.890625 -2.609375q0 -1.75 0.890625 -2.703125q0.90625 -0.96875 2.34375 -0.96875q1.390625 0 2.265625 0.9375q0.875 0.9375 0.875 2.65625q0 0.109375 0 0.3125l-5.15625 0q0.0625 1.140625 0.640625 1.75q0.578125 0.59375 1.4375 0.59375q0.65625 0 1.109375 -0.328125q0.453125 -0.34375 0.71875 -1.078125zm-3.84375 -1.90625l3.859375 0q-0.078125 -0.859375 -0.4375 -1.296875q-0.5625 -0.6875 -1.453125 -0.6875q-0.8125 0 -1.359375 0.546875q-0.546875 0.53125 -0.609375 1.4375zm6.5062256 4.125l0 -6.90625l1.0625 0l0 1.046875q0.40625 -0.734375 0.734375 -0.96875q0.34375 -0.234375 0.765625 -0.234375q0.59375 0 1.203125 0.375l-0.40625 1.078125q-0.4375 -0.25 -0.859375 -0.25q-0.390625 0 -0.703125 0.234375q-0.296875 0.234375 -0.421875 0.640625q-0.203125 0.625 -0.203125 1.359375l0 3.625l-1.171875 0zm3.9852295 -2.0625l1.15625 -0.1875q0.109375 0.703125 0.546875 1.078125q0.453125 0.359375 1.25 0.359375q0.8125 0 1.203125 -0.328125q0.390625 -0.328125 0.390625 -0.765625q0 -0.390625 -0.359375 -0.625q-0.234375 -0.15625 -1.1875 -0.390625q-1.296875 -0.328125 -1.796875 -0.5625q-0.484375 -0.25 -0.75 -0.65625q-0.25 -0.421875 -0.25 -0.9375q0 -0.453125 0.203125 -0.84375q0.21875 -0.40625 0.578125 -0.671875q0.28125 -0.1875 0.75 -0.328125q0.46875 -0.140625 1.015625 -0.140625q0.8125 0 1.421875 0.234375q0.609375 0.234375 0.90625 0.640625q0.296875 0.390625 0.40625 1.0625l-1.140625 0.15625q-0.078125 -0.53125 -0.453125 -0.828125q-0.375 -0.3125 -1.0625 -0.3125q-0.8125 0 -1.15625 0.265625q-0.34375 0.265625 -0.34375 0.625q0 0.234375 0.140625 0.421875q0.15625 0.1875 0.453125 0.3125q0.171875 0.0625 1.03125 0.296875q1.25 0.328125 1.734375 0.546875q0.5 0.203125 0.78125 0.609375q0.28125 0.40625 0.28125 1.0q0 0.59375 -0.34375 1.109375q-0.34375 0.515625 -1.0 0.796875q-0.640625 0.28125 -1.453125 0.28125q-1.34375 0 -2.046875 -0.5625q-0.703125 -0.5625 -0.90625 -1.65625z" fill-rule="nonzero"></path><path fill="#000000" fill-opacity="0.0" d="m346.4161 338.7749c3.5872192 0 7.548462 -39.503937 7.1744385 -79.00787c-0.37402344 -39.503937 -5.0832825 -79.00787 -10.166565 -79.00787" fill-rule="evenodd"></path><path stroke="#000000" stroke-width="1.0" stroke-linejoin="round" stroke-linecap="butt" stroke-dasharray="4.0,3.0" d="m346.4161 338.7749c3.5872192 0 7.548462 -39.503937 7.1744385 -79.00787c-0.18701172 -19.751953 -1.4578247 -39.50392 -3.3172913 -54.3179c-0.92974854 -7.4069824 -2.0066528 -13.579483 -3.1688538 -17.900223c-0.14523315 -0.54008484 -0.29187012 -1.051239 -0.43966675 -1.5322723l-0.055114746 -0.17300415" fill-rule="evenodd"></path><path fill="#000000" stroke="#000000" stroke-width="1.0" stroke-linecap="butt" d="m348.0093 184.96666l-3.809143 -2.9686584l1.0097656 4.722595z" fill-rule="evenodd"></path><path fill="#000000" fill-opacity="0.0" d="m37.065617 420.11023l327.55905 0l0 90.20474l-327.55905 0z" fill-rule="evenodd"></path><path stroke="#000000" stroke-width="2.0" stroke-linejoin="round" stroke-linecap="butt" d="m37.065617 420.11023l327.55905 0l0 90.20474l-327.55905 0z" fill-rule="evenodd"></path><path fill="#000000" d="m49.815617 441.91025l-3.6875 -9.546875l1.359375 0l2.484375 6.9375q0.296875 0.828125 0.5 1.5625q0.21875 -0.78125 0.515625 -1.5625l2.578125 -6.9375l1.28125 0l-3.734375 9.546875l-1.296875 0zm6.1241302 0l0 -9.546875l1.90625 0l2.25 6.765625q0.3125 0.9375 0.46875 1.40625q0.15625 -0.515625 0.5 -1.53125l2.28125 -6.640625l1.7031288 0l0 9.546875l-1.2187538 0l0 -7.984375l-2.765625 7.984375l-1.140625 0l-2.765625 -8.125l0 8.125l-1.21875 0z" fill-rule="nonzero"></path><path fill="#000000" fill-opacity="0.0" d="m133.72704 447.70602l134.23622 0l0 37.070892l-134.23622 0z" fill-rule="evenodd"></path><path stroke="#000000" stroke-width="2.0" stroke-linejoin="round" stroke-linecap="butt" d="m133.72704 447.70602l134.23622 0l0 37.070892l-134.23622 0z" fill-rule="evenodd"></path><path fill="#000000" d="m158.11609 471.04147l0 -9.546875l1.90625 0l2.25 6.765625q0.3125 0.9375 0.46875 1.40625q0.15625 -0.515625 0.5 -1.53125l2.28125 -6.640625l1.703125 0l0 9.546875l-1.21875 0l0 -7.984375l-2.765625 7.984375l-1.140625 0l-2.765625 -8.125l0 8.125l-1.21875 0zm10.555557 -3.453125q0 -1.921875 1.078125 -2.84375q0.890625 -0.765625 2.171875 -0.765625q1.421875 0 2.328125 0.9375q0.90625 0.921875 0.90625 2.578125q0 1.328125 -0.40625 2.09375q-0.390625 0.765625 -1.15625 1.1875q-0.765625 0.421875 -1.671875 0.421875q-1.453125 0 -2.359375 -0.921875q-0.890625 -0.9375 -0.890625 -2.6875zm1.203125 0q0 1.328125 0.578125 1.984375q0.59375 0.65625 1.46875 0.65625q0.875 0 1.453125 -0.65625q0.578125 -0.671875 0.578125 -2.03125q0 -1.28125 -0.59375 -1.9375q-0.578125 -0.65625 -1.4375 -0.65625q-0.875 0 -1.46875 0.65625q-0.578125 0.65625 -0.578125 1.984375zm11.131226 3.453125l0 -0.875q-0.65625 1.03125 -1.9375 1.03125q-0.8125 0 -1.515625 -0.453125q-0.6875 -0.453125 -1.078125 -1.265625q-0.375 -0.828125 -0.375 -1.890625q0 -1.03125 0.34375 -1.875q0.34375 -0.84375 1.03125 -1.28125q0.703125 -0.453125 1.546875 -0.453125q0.625 0 1.109375 0.265625q0.5 0.25 0.796875 0.671875l0 -3.421875l1.171875 0l0 9.546875l-1.09375 0zm-3.703125 -3.453125q0 1.328125 0.5625 1.984375q0.5625 0.65625 1.328125 0.65625q0.765625 0 1.296875 -0.625q0.53125 -0.625 0.53125 -1.90625q0 -1.421875 -0.546875 -2.078125q-0.546875 -0.671875 -1.34375 -0.671875q-0.78125 0 -1.3125 0.640625q-0.515625 0.625 -0.515625 2.0zm11.162476 3.453125l0 -1.015625q-0.8125 1.171875 -2.1875 1.171875q-0.609375 0 -1.140625 -0.234375q-0.53125 -0.234375 -0.796875 -0.578125q-0.25 -0.359375 -0.359375 -0.875q-0.0625 -0.34375 -0.0625 -1.09375l0 -4.28125l1.171875 0l0 3.828125q0 0.921875 0.0625 1.234375q0.109375 0.46875 0.46875 0.734375q0.359375 0.25 0.890625 0.25q0.515625 0 0.984375 -0.265625q0.46875 -0.265625 0.65625 -0.734375q0.1875 -0.46875 0.1875 -1.34375l0 -3.703125l1.171875 0l0 6.90625l-1.046875 0zm2.8656006 0l0 -9.546875l1.171875 0l0 9.546875l-1.171875 0zm7.71109 -2.21875l1.203125 0.140625q-0.28125 1.0625 -1.0625 1.65625q-0.765625 0.578125 -1.96875 0.578125q-1.515625 0 -2.40625 -0.9375q-0.890625 -0.9375 -0.890625 -2.609375q0 -1.75 0.890625 -2.703125q0.90625 -0.96875 2.34375 -0.96875q1.390625 0 2.265625 0.9375q0.875 0.9375 0.875 2.65625q0 0.109375 0 0.3125l-5.15625 0q0.0625 1.140625 0.640625 1.75q0.578125 0.59375 1.4375 0.59375q0.65625 0 1.109375 -0.328125q0.453125 -0.34375 0.71875 -1.078125zm-3.84375 -1.90625l3.859375 0q-0.078125 -0.859375 -0.4375 -1.296875q-0.5625 -0.6875 -1.453125 -0.6875q-0.8125 0 -1.359375 0.546875q-0.546875 0.53125 -0.609375 1.4375zm11.302963 4.125l-1.078125 0l0 -9.546875l1.171875 0l0 3.40625q0.734375 -0.921875 1.890625 -0.921875q0.640625 0 1.203125 0.265625q0.578125 0.25 0.9375 0.71875q0.375 0.453125 0.578125 1.109375q0.203125 0.65625 0.203125 1.40625q0 1.78125 -0.875 2.75q-0.875 0.96875 -2.109375 0.96875q-1.21875 0 -1.921875 -1.015625l0 0.859375zm0 -3.5q0 1.234375 0.328125 1.78125q0.5625 0.90625 1.5 0.90625q0.765625 0 1.328125 -0.65625q0.5625 -0.671875 0.5625 -2.0q0 -1.34375 -0.546875 -1.984375q-0.53125 -0.65625 -1.296875 -0.65625q-0.765625 0 -1.328125 0.671875q-0.546875 0.671875 -0.546875 1.9375zm10.865601 3.5l0 -1.015625q-0.8125 1.171875 -2.1875 1.171875q-0.609375 0 -1.140625 -0.234375q-0.53125 -0.234375 -0.796875 -0.578125q-0.25 -0.359375 -0.359375 -0.875q-0.0625 -0.34375 -0.0625 -1.09375l0 -4.28125l1.171875 0l0 3.828125q0 0.921875 0.0625 1.234375q0.109375 0.46875 0.46875 0.734375q0.359375 0.25 0.890625 0.25q0.515625 0 0.984375 -0.265625q0.46875 -0.265625 0.65625 -0.734375q0.1875 -0.46875 0.1875 -1.34375l0 -3.703125l1.171875 0l0 6.90625l-1.046875 0zm2.8968506 -8.1875l0 -1.359375l1.171875 0l0 1.359375l-1.171875 0zm0 8.1875l0 -6.90625l1.171875 0l0 6.90625l-1.171875 0zm2.92984 0l0 -9.546875l1.171875 0l0 9.546875l-1.171875 0zm7.46109 0l0 -0.875q-0.65625 1.03125 -1.9375 1.03125q-0.8125 0 -1.515625 -0.453125q-0.6875 -0.453125 -1.078125 -1.265625q-0.375 -0.828125 -0.375 -1.890625q0 -1.03125 0.34375 -1.875q0.34375 -0.84375 1.03125 -1.28125q0.703125 -0.453125 1.546875 -0.453125q0.625 0 1.109375 0.265625q0.5 0.25 0.796875 0.671875l0 -3.421875l1.171875 0l0 9.546875l-1.09375 0zm-3.703125 -3.453125q0 1.328125 0.5625 1.984375q0.5625 0.65625 1.328125 0.65625q0.765625 0 1.296875 -0.625q0.53125 -0.625 0.53125 -1.90625q0 -1.421875 -0.546875 -2.078125q-0.546875 -0.671875 -1.34375 -0.671875q-0.78125 0 -1.3125 0.640625q-0.515625 0.625 -0.515625 2.0zm11.365601 1.234375l1.203125 0.140625q-0.28125 1.0625 -1.0625 1.65625q-0.765625 0.578125 -1.96875 0.578125q-1.515625 0 -2.40625 -0.9375q-0.890625 -0.9375 -0.890625 -2.609375q0 -1.75 0.890625 -2.703125q0.90625 -0.96875 2.34375 -0.96875q1.390625 0 2.265625 0.9375q0.875 0.9375 0.875 2.65625q0 0.109375 0 0.3125l-5.15625 0q0.0625 1.140625 0.640625 1.75q0.578125 0.59375 1.4375 0.59375q0.65625 0 1.109375 -0.328125q0.453125 -0.34375 0.71875 -1.078125zm-3.84375 -1.90625l3.859375 0q-0.078125 -0.859375 -0.4375 -1.296875q-0.5625 -0.6875 -1.453125 -0.6875q-0.8125 0 -1.359375 0.546875q-0.546875 0.53125 -0.609375 1.4375zm6.5062256 4.125l0 -6.90625l1.0625 0l0 1.046875q0.40625 -0.734375 0.734375 -0.96875q0.34375 -0.234375 0.765625 -0.234375q0.59375 0 1.203125 0.375l-0.40625 1.078125q-0.4375 -0.25 -0.859375 -0.25q-0.390625 0 -0.703125 0.234375q-0.296875 0.234375 -0.421875 0.640625q-0.203125 0.625 -0.203125 1.359375l0 3.625l-1.171875 0z" fill-rule="nonzero"></path><path fill="#000000" fill-opacity="0.0" d="m267.96326 466.24146l199.81104 0l0 -227.37007" fill-rule="evenodd"></path><path stroke="#000000" stroke-width="2.0" stroke-linejoin="round" stroke-linecap="butt" d="m267.96326 466.24146l199.81104 0l0 -227.37007" fill-rule="evenodd"></path><path fill="#000000" fill-opacity="0.0" d="m426.94382 520.75397l0 0c-0.80355835 -5.454834 1.8347473 -10.854767 6.795471 -13.908447c4.960724 -3.0536804 11.37381 -3.225525 16.517944 -0.44262695l0 0c1.8222351 -3.1716614 5.1574097 -5.3614807 8.996735 -5.907074c3.839325 -0.54559326 7.7318726 0.61712646 10.500183 3.136444l0 0c1.5522766 -2.8756409 4.6002502 -4.807678 8.062286 -5.110565c3.4620667 -0.30288696 6.848236 1.0662537 8.95694 3.621582l0 0c2.8044434 -3.0481567 7.266388 -4.3315735 11.455109 -3.2948608c4.188751 1.0366821 7.3519287 4.2072754 8.12085 8.139832l0 0c3.435913 0.86569214 6.297943 3.0664062 7.84671 6.033539c1.548706 2.967102 1.6321411 6.409607 0.22875977 9.437988l0 0c3.3834229 4.067505 4.1748657 9.487366 2.0790405 14.2369995c-2.0958252 4.749695 -6.764038 8.11554 -12.262604 8.841553c-0.038757324 4.4577026 -2.6854553 8.548035 -6.9199524 10.694458c-4.234497 2.1463623 -9.395569 2.0136108 -13.4938965 -0.34710693c-1.745697 5.338867 -6.6591797 9.267212 -12.617645 10.087769c-5.958496 0.82055664 -11.893799 -1.6137695 -15.241669 -6.2512207c-4.1037903 2.2857666 -9.028015 2.944275 -13.661804 1.8268433c-4.6338196 -1.1174316 -8.586945 -3.916565 -10.96759 -7.7660522l0 0c-4.1935425 0.45324707 -8.248138 -1.5536499 -10.151489 -5.024719c-1.9033203 -3.4710693 -1.2502441 -7.6674194 1.6351318 -10.506409l0 0c-3.7407837 -2.0336914 -5.649536 -6.069275 -4.730957 -10.002258c0.9185791 -3.9330444 4.45636 -6.8722534 8.768524 -7.285034z" fill-rule="evenodd"></path><path fill="#000000" fill-opacity="0.0" d="m422.82336 538.2515l0 0c1.7652893 0.9597168 3.804596 1.3950806 5.844116 1.2475586m2.6713562 14.2838745c0.8770752 -0.0947876 1.7367554 -0.29553223 2.5569153 -0.59710693m22.071228 6.536072c-0.6168823 -0.8544922 -1.1333618 -1.7675781 -1.5406494 -2.723755m29.401031 -1.112915l0 0c0.31826782 -0.9733887 0.5244751 -1.9751587 0.61517334 -2.9887085m19.797913 -7.3582764c0.041290283 -4.7459717 -2.8769836 -9.09137 -7.5012817 -11.1698m17.684784 -11.908264c-0.74890137 1.6160889 -1.8921509 3.0496826 -3.3401794 4.1884155m-4.734619 -19.66037l0 0c0.127594 0.6526184 0.18664551 1.315033 0.17633057 1.9780884m-19.751984 -6.8228455l0 0c-0.69955444 0.76034546 -1.2759094 1.6100464 -1.7110901 2.522644m-15.308289 -1.0339966l0 0c-0.37280273 0.6906433 -0.6511841 1.4214478 -0.82873535 2.1755981m-18.668457 0.59506226l0 0c1.088501 0.5888672 2.09552 1.2976379 2.998932 2.1107178m-26.312042 12.240448l0 0c0.11077881 0.75183105 0.2857666 1.4943848 0.52337646 2.2207031" fill-rule="evenodd"></path><path stroke="#000000" stroke-width="2.0" stroke-linejoin="round" stroke-linecap="butt" d="m426.94382 520.75397l0 0c-0.80355835 -5.454834 1.8347473 -10.854767 6.795471 -13.908447c4.960724 -3.0536804 11.37381 -3.225525 16.517944 -0.44262695l0 0c1.8222351 -3.1716614 5.1574097 -5.3614807 8.996735 -5.907074c3.839325 -0.54559326 7.7318726 0.61712646 10.500183 3.136444l0 0c1.5522766 -2.8756409 4.6002502 -4.807678 8.062286 -5.110565c3.4620667 -0.30288696 6.848236 1.0662537 8.95694 3.621582l0 0c2.8044434 -3.0481567 7.266388 -4.3315735 11.455109 -3.2948608c4.188751 1.0366821 7.3519287 4.2072754 8.12085 8.139832l0 0c3.435913 0.86569214 6.297943 3.0664062 7.84671 6.033539c1.548706 2.967102 1.6321411 6.409607 0.22875977 9.437988l0 0c3.3834229 4.067505 4.1748657 9.487366 2.0790405 14.2369995c-2.0958252 4.749695 -6.764038 8.11554 -12.262604 8.841553c-0.038757324 4.4577026 -2.6854553 8.548035 -6.9199524 10.694458c-4.234497 2.1463623 -9.395569 2.0136108 -13.4938965 -0.34710693c-1.745697 5.338867 -6.6591797 9.267212 -12.617645 10.087769c-5.958496 0.82055664 -11.893799 -1.6137695 -15.241669 -6.2512207c-4.1037903 2.2857666 -9.028015 2.944275 -13.661804 1.8268433c-4.6338196 -1.1174316 -8.586945 -3.916565 -10.96759 -7.7660522l0 0c-4.1935425 0.45324707 -8.248138 -1.5536499 -10.151489 -5.024719c-1.9033203 -3.4710693 -1.2502441 -7.6674194 1.6351318 -10.506409l0 0c-3.7407837 -2.0336914 -5.649536 -6.069275 -4.730957 -10.002258c0.9185791 -3.9330444 4.45636 -6.8722534 8.768524 -7.285034z" fill-rule="evenodd"></path><path stroke="#000000" stroke-width="2.0" stroke-linejoin="round" stroke-linecap="butt" d="m422.82336 538.2515l0 0c1.7652893 0.9597168 3.804596 1.3950806 5.844116 1.2475586m2.6713562 14.2838745c0.8770752 -0.0947876 1.7367554 -0.29553223 2.5569153 -0.59710693m22.071228 6.536072c-0.6168823 -0.8544922 -1.1333618 -1.7675781 -1.5406494 -2.723755m29.401031 -1.112915l0 0c0.31826782 -0.9733887 0.5244751 -1.9751587 0.61517334 -2.9887085m19.797913 -7.3582764c0.041290283 -4.7459717 -2.8769836 -9.09137 -7.5012817 -11.1698m17.684784 -11.908264c-0.74890137 1.6160889 -1.8921509 3.0496826 -3.3401794 4.1884155m-4.734619 -19.66037l0 0c0.127594 0.6526184 0.18664551 1.315033 0.17633057 1.9780884m-19.751984 -6.8228455l0 0c-0.69955444 0.76034546 -1.2759094 1.6100464 -1.7110901 2.522644m-15.308289 -1.0339966l0 0c-0.37280273 0.6906433 -0.6511841 1.4214478 -0.82873535 2.1755981m-18.668457 0.59506226l0 0c1.088501 0.5888672 2.09552 1.2976379 2.998932 2.1107178m-26.312042 12.240448l0 0c0.11077881 0.75183105 0.2857666 1.4943848 0.52337646 2.2207031" fill-rule="evenodd"></path><path fill="#000000" d="m450.44254 535.30457l0 -9.546875l1.296875 0l5.015625 7.5l0 -7.5l1.203125 0l0 9.546875l-1.296875 0l-5.015625 -7.5l0 7.5l-1.203125 0zm9.640778 0l0 -9.546875l3.59375 0q0.953125 0 1.453125 0.09375q0.703125 0.125 1.171875 0.453125q0.484375 0.328125 0.765625 0.921875q0.296875 0.59375 0.296875 1.296875q0 1.21875 -0.78125 2.0625q-0.765625 0.84375 -2.796875 0.84375l-2.4375 0l0 3.875l-1.265625 0zm1.265625 -5.0l2.453125 0q1.234375 0 1.75 -0.453125q0.515625 -0.46875 0.515625 -1.28125q0 -0.609375 -0.3125 -1.03125q-0.296875 -0.421875 -0.796875 -0.5625q-0.3125 -0.09375 -1.171875 -0.09375l-2.4375 0l0 3.421875zm7.5772705 5.0l0 -9.546875l1.90625 0l2.25 6.765625q0.3125 0.9375 0.46875 1.40625q0.15625 -0.515625 0.5 -1.53125l2.28125 -6.640625l1.703125 0l0 9.546875l-1.21875 0l0 -7.984375l-2.765625 7.984375l-1.140625 0l-2.765625 -8.125l0 8.125l-1.21875 0z" fill-rule="nonzero"></path><path fill="#000000" fill-opacity="0.0" d="m200.84514 484.77692l0 47.307068l217.41734 0" fill-rule="evenodd"></path><path stroke="#000000" stroke-width="2.0" stroke-linejoin="round" stroke-linecap="butt" d="m200.84514 484.77692l0 47.307068l217.41734 0" fill-rule="evenodd"></path><path fill="#000000" fill-opacity="0.0" d="m153.24934 92.120735c-16.524902 0 -30.608864 93.527565 -33.049805 187.05511c-2.4409485 93.52756 6.7611237 187.05511 13.522247 187.05511" fill-rule="evenodd"></path><path stroke="#000000" stroke-width="1.0" stroke-linejoin="round" stroke-linecap="butt" stroke-dasharray="4.0,3.0" d="m153.24934 92.120735c-16.524902 0 -30.608864 93.527565 -33.049805 187.05511c-1.2204742 46.763794 0.46980286 93.52756 3.310341 128.6004c1.4202805 17.536407 3.1281128 32.150085 4.90345 42.37967c0.4438324 2.557434 0.8918762 4.84079 1.3407135 6.827362c0.22442627 0.9932556 0.44903564 1.912323 0.67341614 2.754303c0.11218262 0.4210205 0.2243042 0.8227539 0.33633423 1.204834l0.017562866 0.058441162" fill-rule="evenodd"></path><path fill="#000000" stroke="#000000" stroke-width="1.0" stroke-linecap="butt" d="m129.34158 461.81033l3.6637726 3.1463318l-0.7842102 -4.765259z" fill-rule="evenodd"></path><path fill="#000000" fill-opacity="0.0" d="m42.070866 277.06955l0 0c0 -7.2833557 15.248173 -13.187653 34.057743 -13.187653c18.80957 0 34.05774 5.904297 34.05774 13.187653l0 52.75067c0 7.283325 -15.248169 13.187653 -34.05774 13.187653c-18.80957 0 -34.057743 -5.9043274 -34.057743 -13.187653z" fill-rule="evenodd"></path><path fill="#000000" fill-opacity="0.0" d="m110.18635 277.06955l0 0c0 7.2833557 -15.248169 13.187683 -34.05774 13.187683c-18.80957 0 -34.057743 -5.9043274 -34.057743 -13.187683" fill-rule="evenodd"></path><path fill="#000000" fill-opacity="0.0" d="m42.070866 277.06955l0 0c0 -7.2833557 15.248173 -13.187653 34.057743 -13.187653c18.80957 0 34.05774 5.904297 34.05774 13.187653l0 52.75067c0 7.283325 -15.248169 13.187653 -34.05774 13.187653c-18.80957 0 -34.057743 -5.9043274 -34.057743 -13.187653z" fill-rule="evenodd"></path><path stroke="#000000" stroke-width="2.0" stroke-linejoin="round" stroke-linecap="butt" d="m110.18635 277.06955l0 0c0 7.2833557 -15.248169 13.187683 -34.05774 13.187683c-18.80957 0 -34.057743 -5.9043274 -34.057743 -13.187683" fill-rule="evenodd"></path><path stroke="#000000" stroke-width="2.0" stroke-linejoin="round" stroke-linecap="butt" d="m42.070866 277.06955l0 0c0 -7.2833557 15.248173 -13.187653 34.057743 -13.187653c18.80957 0 34.05774 5.904297 34.05774 13.187653l0 52.75067c0 7.283325 -15.248169 13.187653 -34.05774 13.187653c-18.80957 0 -34.057743 -5.9043274 -34.057743 -13.187653z" fill-rule="evenodd"></path><path fill="#000000" d="m61.16607 306.8387l0 -9.546875l1.265625 0l0 8.421875l4.703125 0l0 1.125l-5.96875 0zm6.8812256 -3.453125q0 -1.921875 1.078125 -2.84375q0.890625 -0.765625 2.171875 -0.765625q1.421875 0 2.328125 0.9375q0.90625 0.921875 0.90625 2.578125q0 1.328125 -0.40625 2.09375q-0.390625 0.765625 -1.15625 1.1875q-0.765625 0.421875 -1.671875 0.421875q-1.453125 0 -2.359375 -0.921875q-0.890625 -0.9375 -0.890625 -2.6875zm1.203125 0q0 1.328125 0.578125 1.984375q0.59375 0.65625 1.46875 0.65625q0.875 0 1.453125 -0.65625q0.578125 -0.671875 0.578125 -2.03125q0 -1.28125 -0.59375 -1.9375q-0.578125 -0.65625 -1.4375 -0.65625q-0.875 0 -1.46875 0.65625q-0.578125 0.65625 -0.578125 1.984375zm11.162476 0.921875l1.15625 0.15625q-0.1875 1.1875 -0.96875 1.859375q-0.78125 0.671875 -1.921875 0.671875q-1.40625 0 -2.28125 -0.921875q-0.859375 -0.9375 -0.859375 -2.65625q0 -1.125 0.375 -1.96875q0.375 -0.84375 1.125 -1.25q0.765625 -0.421875 1.65625 -0.421875q1.125 0 1.84375 0.578125q0.71875 0.5625 0.921875 1.609375l-1.140625 0.171875q-0.171875 -0.703125 -0.59375 -1.046875q-0.40625 -0.359375 -0.984375 -0.359375q-0.890625 0 -1.453125 0.640625q-0.546875 0.640625 -0.546875 2.0q0 1.40625 0.53125 2.03125q0.546875 0.625 1.40625 0.625q0.6875 0 1.140625 -0.421875q0.46875 -0.421875 0.59375 -1.296875zm6.6640625 1.671875q-0.65625 0.5625 -1.265625 0.796875q-0.59375 0.21875 -1.28125 0.21875q-1.140625 0 -1.75 -0.546875q-0.609375 -0.5625 -0.609375 -1.4375q0 -0.5 0.21875 -0.921875q0.234375 -0.421875 0.609375 -0.671875q0.375 -0.25 0.84375 -0.390625q0.34375 -0.078125 1.046875 -0.171875q1.421875 -0.171875 2.09375 -0.40625q0 -0.234375 0 -0.296875q0 -0.71875 -0.328125 -1.015625q-0.453125 -0.390625 -1.34375 -0.390625q-0.8125 0 -1.21875 0.296875q-0.390625 0.28125 -0.578125 1.015625l-1.140625 -0.15625q0.15625 -0.734375 0.515625 -1.1875q0.359375 -0.453125 1.03125 -0.6875q0.671875 -0.25 1.5625 -0.25q0.890625 0 1.4375 0.203125q0.5625 0.203125 0.8125 0.53125q0.265625 0.3125 0.375 0.796875q0.046875 0.296875 0.046875 1.078125l0 1.5625q0 1.625 0.078125 2.0625q0.078125 0.4375 0.296875 0.828125l-1.21875 0q-0.1875 -0.359375 -0.234375 -0.859375zm-0.09375 -2.609375q-0.640625 0.265625 -1.921875 0.4375q-0.71875 0.109375 -1.015625 0.25q-0.296875 0.125 -0.46875 0.375q-0.15625 0.25 -0.15625 0.546875q0 0.46875 0.34375 0.78125q0.359375 0.3125 1.046875 0.3125q0.671875 0 1.203125 -0.296875q0.53125 -0.296875 0.78125 -0.8125q0.1875 -0.390625 0.1875 -1.171875l0 -0.421875zm2.9749756 3.46875l0 -9.546875l1.171875 0l0 9.546875l-1.171875 0z" fill-rule="nonzero"></path><path fill="#000000" d="m57.442978 322.8387l-2.625 -6.90625l1.234375 0l1.484375 4.140625q0.234375 0.65625 0.4375 1.390625q0.15625 -0.546875 0.4375 -1.3125l1.53125 -4.21875l1.21875 0l-2.625 6.90625l-1.09375 0zm4.3046875 -3.453125q0 -1.921875 1.078125 -2.84375q0.890625 -0.765625 2.171875 -0.765625q1.421875 0 2.328125 0.9375q0.90625 0.921875 0.90625 2.578125q0 1.328125 -0.40625 2.09375q-0.390625 0.765625 -1.15625 1.1875q-0.765625 0.421875 -1.671875 0.421875q-1.453125 0 -2.359375 -0.921875q-0.890625 -0.9375 -0.890625 -2.6875zm1.203125 0q0 1.328125 0.578125 1.984375q0.59375 0.65625 1.46875 0.65625q0.875 0 1.453125 -0.65625q0.578125 -0.671875 0.578125 -2.03125q0 -1.28125 -0.59375 -1.9375q-0.578125 -0.65625 -1.4375 -0.65625q-0.875 0 -1.46875 0.65625q-0.578125 0.65625 -0.578125 1.984375zm6.6312256 3.453125l0 -9.546875l1.171875 0l0 9.546875l-1.171875 0zm7.507965 0l0 -1.015625q-0.8125 1.171875 -2.1875 1.171875q-0.609375 0 -1.140625 -0.234375q-0.53125 -0.234375 -0.796875 -0.578125q-0.25 -0.359375 -0.359375 -0.875q-0.0625 -0.34375 -0.0625 -1.09375l0 -4.28125l1.171875 0l0 3.828125q0 0.921875 0.0625 1.234375q0.109375 0.46875 0.46875 0.734375q0.359375 0.25 0.890625 0.25q0.515625 0 0.984375 -0.265625q0.46875 -0.265625 0.65625 -0.734375q0.1875 -0.46875 0.1875 -1.34375l0 -3.703125l1.171875 0l0 6.90625l-1.046875 0zm2.8812256 0l0 -6.90625l1.046875 0l0 0.96875q0.328125 -0.515625 0.859375 -0.8125q0.546875 -0.3125 1.234375 -0.3125q0.78125 0 1.265625 0.3125q0.484375 0.3125 0.6875 0.890625q0.828125 -1.203125 2.140625 -1.203125q1.03125 0 1.578125 0.578125q0.5625 0.5625 0.5625 1.734375l0 4.75l-1.171875 0l0 -4.359375q0 -0.703125 -0.125 -1.0q-0.109375 -0.3125 -0.40625 -0.5q-0.296875 -0.1875 -0.703125 -0.1875q-0.71875 0 -1.203125 0.484375q-0.484375 0.484375 -0.484375 1.546875l0 4.015625l-1.171875 0l0 -4.484375q0 -0.78125 -0.296875 -1.171875q-0.28125 -0.390625 -0.921875 -0.390625q-0.5 0 -0.921875 0.265625q-0.421875 0.25 -0.609375 0.75q-0.1875 0.5 -0.1875 1.453125l0 3.578125l-1.171875 0zm15.836807 -2.21875l1.203125 0.140625q-0.28125 1.0625 -1.0625 1.65625q-0.765625 0.578125 -1.96875 0.578125q-1.515625 0 -2.40625 -0.9375q-0.890625 -0.9375 -0.890625 -2.609375q0 -1.75 0.890625 -2.703125q0.90625 -0.96875 2.34375 -0.96875q1.390625 0 2.265625 0.9375q0.875 0.9375 0.875 2.65625q0 0.109375 0 0.3125l-5.15625 0q0.0625 1.140625 0.640625 1.75q0.578125 0.59375 1.4375 0.59375q0.65625 0 1.109375 -0.328125q0.453125 -0.34375 0.71875 -1.078125zm-3.84375 -1.90625l3.859375 0q-0.078125 -0.859375 -0.4375 -1.296875q-0.5625 -0.6875 -1.453125 -0.6875q-0.8125 0 -1.359375 0.546875q-0.546875 0.53125 -0.609375 1.4375z" fill-rule="nonzero"></path><path fill="#000000" fill-opacity="0.0" d="m76.12861 263.8819l118.11024 -83.11812" fill-rule="evenodd"></path><path stroke="#000000" stroke-width="2.0" stroke-linejoin="round" stroke-linecap="butt" stroke-dasharray="8.0,6.0" d="m76.12861 263.8819l118.11024 -83.11812" fill-rule="evenodd"></path><path fill="#000000" fill-opacity="0.0" d="m76.12861 263.8819l181.79529 -46.047256" fill-rule="evenodd"></path><path stroke="#000000" stroke-width="2.0" stroke-linejoin="round" stroke-linecap="butt" stroke-dasharray="8.0,6.0" d="m76.12861 263.8819l181.79529 -46.047256" fill-rule="evenodd"></path></g></svg>

