<?xml version="1.0" standalone="yes"?>

<svg version="1.1" viewBox="0.0 0.0 600.0 400.0" fill="none" stroke="none" stroke-linecap="square" stroke-miterlimit="10" xmlns="http://www.w3.org/2000/svg" xmlns:xlink="http://www.w3.org/1999/xlink"><clipPath id="p.0"><path d="m0 0l800.0 0l0 600.0l-800.0 0l0 -600.0z" clip-rule="nonzero"></path></clipPath><g clip-path="url(#p.0)"><path fill="#000000" fill-opacity="0.0" d="m0 0l800.0 0l0 600.0l-800.0 0z" fill-rule="evenodd"></path><path fill="#000000" fill-opacity="0.0" d="m37.065617 34.524933l327.55905 0l0 325.5433l-327.55905 0z" fill-rule="evenodd"></path><path stroke="#000000" stroke-width="2.0" stroke-linejoin="round" stroke-linecap="butt" d="m37.065617 34.524933l327.55905 0l0 325.5433l-327.55905 0z" fill-rule="evenodd"></path><path fill="#000000" d="m49.815617 56.324932l-3.6875 -9.546875l1.359375 0l2.484375 6.9375q0.296875 0.828125 0.5 1.5625q0.21875 -0.78125 0.515625 -1.5625l2.578125 -6.9375l1.28125 0l-3.734375 9.546875l-1.296875 0zm6.1241302 0l0 -9.546875l1.90625 0l2.25 6.765625q0.3125 0.9375 0.46875 1.40625q0.15625 -0.515625 0.5 -1.53125l2.28125 -6.640625l1.7031288 0l0 9.546875l-1.2187538 0l0 -7.984375l-2.765625 7.984375l-1.140625 0l-2.765625 -8.125l0 8.125l-1.21875 0z" fill-rule="nonzero"></path><path fill="#000000" fill-opacity="0.0" d="m53.089237 164.73753l46.07874 0l0 43.08661l-46.07874 0z" fill-rule="evenodd"></path><path stroke="#000000" stroke-width="2.0" stroke-linejoin="round" stroke-linecap="butt" d="m53.089237 164.73753l46.07874 0l0 43.08661l-46.07874 0z" fill-rule="evenodd"></path><path fill="#000000" fill-opacity="0.0" d="m53.089237 186.28084l-41.070866 -0.50393677" fill-rule="evenodd"></path><path stroke="#000000" stroke-width="2.0" stroke-linejoin="round" stroke-linecap="butt" d="m53.089237 186.28084l-33.491432 -0.4109497" fill-rule="evenodd"></path><path fill="#000000" stroke="#000000" stroke-width="2.0" stroke-linecap="butt" d="m13.018297 185.78917c0.02229309 -1.8168793 1.513238 -3.2716827 3.3301182 -3.2493896c1.8168793 0.02229309 3.271679 1.5132446 3.2493858 3.330124c-0.02229309 1.8168793 -1.513237 3.2716827 -3.3301163 3.2493896c-1.8168802 -0.02229309 -3.2716808 -1.5132446 -3.2493877 -3.330124z" fill-rule="nonzero"></path><path fill="#000000" fill-opacity="0.0" d="m78.13123 185.77428l75.11811 -75.11811" fill-rule="evenodd"></path><path stroke="#000000" stroke-width="2.0" stroke-linejoin="round" stroke-linecap="butt" d="m78.13123 185.77428l75.11811 -75.11811" fill-rule="evenodd"></path><path fill="#000000" fill-opacity="0.0" d="m79.13123 186.7769l34.04724 36.06299" fill-rule="evenodd"></path><path stroke="#000000" stroke-width="2.0" stroke-linejoin="round" stroke-linecap="butt" d="m79.13123 186.7769l34.04724 36.06299" fill-rule="evenodd"></path><path fill="#000000" fill-opacity="0.0" d="m99.16798 186.28084l0 0" fill-rule="evenodd"></path><path stroke="#000000" stroke-width="1.0" stroke-linejoin="round" stroke-linecap="butt" d="m99.16798 186.28084l0 0" fill-rule="evenodd"></path><path fill="#000000" fill-opacity="0.0" d="m116.19423 186.7769l-39.055122 0" fill-rule="evenodd"></path><path stroke="#000000" stroke-width="2.0" stroke-linejoin="round" stroke-linecap="butt" d="m116.19423 186.7769l-39.055122 0" fill-rule="evenodd"></path><path fill="#000000" fill-opacity="0.0" d="m153.24934 73.585304l134.23622 0l0 37.07086l-134.23622 0z" fill-rule="evenodd"></path><path stroke="#000000" stroke-width="2.0" stroke-linejoin="round" stroke-linecap="butt" d="m153.24934 73.585304l134.23622 0l0 37.07086l-134.23622 0z" fill-rule="evenodd"></path><path fill="#000000" d="m166.52946 96.92073l0 -9.546875l1.90625 0l2.25 6.765625q0.3125 0.9375 0.46875 1.40625q0.15625 -0.515625 0.5 -1.53125l2.28125 -6.640625l1.703125 0l0 9.546875l-1.21875 0l0 -7.984375l-2.765625 7.984375l-1.140625 0l-2.765625 -8.125l0 8.125l-1.21875 0zm15.508682 -0.859375q-0.65625 0.5625 -1.265625 0.796875q-0.59375 0.21875 -1.28125 0.21875q-1.140625 0 -1.75 -0.546875q-0.609375 -0.5625 -0.609375 -1.4375q0 -0.5 0.21875 -0.921875q0.234375 -0.421875 0.609375 -0.671875q0.375 -0.25 0.84375 -0.390625q0.34375 -0.078125 1.046875 -0.171875q1.421875 -0.171875 2.09375 -0.40625q0 -0.234375 0 -0.296875q0 -0.71875 -0.328125 -1.015625q-0.453125 -0.390625 -1.34375 -0.390625q-0.8125 0 -1.21875 0.296875q-0.390625 0.28125 -0.578125 1.015625l-1.140625 -0.15625q0.15625 -0.734375 0.515625 -1.1875q0.359375 -0.453125 1.03125 -0.6875q0.671875 -0.25 1.5625 -0.25q0.890625 0 1.4375 0.203125q0.5625 0.203125 0.8125 0.53125q0.265625 0.3125 0.375 0.796875q0.046875 0.296875 0.046875 1.078125l0 1.5625q0 1.625 0.078125 2.0625q0.078125 0.4375 0.296875 0.828125l-1.21875 0q-0.1875 -0.359375 -0.234375 -0.859375zm-0.09375 -2.609375q-0.640625 0.265625 -1.921875 0.4375q-0.71875 0.109375 -1.015625 0.25q-0.296875 0.125 -0.46875 0.375q-0.15625 0.25 -0.15625 0.546875q0 0.46875 0.34375 0.78125q0.359375 0.3125 1.046875 0.3125q0.671875 0 1.203125 -0.296875q0.53125 -0.296875 0.78125 -0.8125q0.1875 -0.390625 0.1875 -1.171875l0 -0.421875zm2.9906006 3.46875l0 -6.90625l1.0625 0l0 0.984375q0.75 -1.140625 2.1875 -1.140625q0.625 0 1.15625 0.21875q0.53125 0.21875 0.78125 0.59375q0.265625 0.359375 0.375 0.859375q0.0625 0.328125 0.0625 1.140625l0 4.25l-1.171875 0l0 -4.203125q0 -0.71875 -0.140625 -1.0625q-0.140625 -0.359375 -0.484375 -0.5625q-0.34375 -0.21875 -0.8125 -0.21875q-0.75 0 -1.296875 0.46875q-0.546875 0.46875 -0.546875 1.796875l0 3.78125l-1.171875 0zm11.928101 -0.859375q-0.65625 0.5625 -1.265625 0.796875q-0.59375 0.21875 -1.28125 0.21875q-1.140625 0 -1.75 -0.546875q-0.609375 -0.5625 -0.609375 -1.4375q0 -0.5 0.21875 -0.921875q0.234375 -0.421875 0.609375 -0.671875q0.375 -0.25 0.84375 -0.390625q0.34375 -0.078125 1.046875 -0.171875q1.421875 -0.171875 2.09375 -0.40625q0 -0.234375 0 -0.296875q0 -0.71875 -0.328125 -1.015625q-0.453125 -0.390625 -1.34375 -0.390625q-0.8125 0 -1.21875 0.296875q-0.390625 0.28125 -0.578125 1.015625l-1.140625 -0.15625q0.15625 -0.734375 0.515625 -1.1875q0.359375 -0.453125 1.03125 -0.6875q0.671875 -0.25 1.5625 -0.25q0.890625 0 1.4375 0.203125q0.5625 0.203125 0.8125 0.53125q0.265625 0.3125 0.375 0.796875q0.046875 0.296875 0.046875 1.078125l0 1.5625q0 1.625 0.078125 2.0625q0.078125 0.4375 0.296875 0.828125l-1.21875 0q-0.1875 -0.359375 -0.234375 -0.859375zm-0.09375 -2.609375q-0.640625 0.265625 -1.921875 0.4375q-0.71875 0.109375 -1.015625 0.25q-0.296875 0.125 -0.46875 0.375q-0.15625 0.25 -0.15625 0.546875q0 0.46875 0.34375 0.78125q0.359375 0.3125 1.046875 0.3125q0.671875 0 1.203125 -0.296875q0.53125 -0.296875 0.78125 -0.8125q0.1875 -0.390625 0.1875 -1.171875l0 -0.421875zm2.7718506 4.046875l1.140625 0.15625q0.078125 0.53125 0.40625 0.78125q0.4375 0.3125 1.1875 0.3125q0.8125 0 1.25 -0.328125q0.453125 -0.3125 0.609375 -0.90625q0.09375 -0.359375 0.078125 -1.5q-0.765625 0.90625 -1.90625 0.90625q-1.4375 0 -2.21875 -1.03125q-0.78125 -1.03125 -0.78125 -2.46875q0 -0.984375 0.359375 -1.8125q0.359375 -0.84375 1.03125 -1.296875q0.6875 -0.453125 1.609375 -0.453125q1.21875 0 2.015625 0.984375l0 -0.828125l1.078125 0l0 5.96875q0 1.609375 -0.328125 2.28125q-0.328125 0.6875 -1.046875 1.078125q-0.703125 0.390625 -1.75 0.390625q-1.234375 0 -2.0 -0.5625q-0.75 -0.5625 -0.734375 -1.671875zm0.984375 -4.15625q0 1.359375 0.53125 1.984375q0.546875 0.625 1.359375 0.625q0.796875 0 1.34375 -0.625q0.546875 -0.625 0.546875 -1.953125q0 -1.265625 -0.5625 -1.90625q-0.5625 -0.640625 -1.359375 -0.640625q-0.765625 0 -1.3125 0.640625q-0.546875 0.625 -0.546875 1.875zm11.381226 1.359375l1.203125 0.140625q-0.28125 1.0625 -1.0625 1.65625q-0.765625 0.578125 -1.96875 0.578125q-1.515625 0 -2.40625 -0.9375q-0.890625 -0.9375 -0.890625 -2.609375q0 -1.75 0.890625 -2.703125q0.90625 -0.96875 2.34375 -0.96875q1.390625 0 2.265625 0.9375q0.875 0.9375 0.875 2.65625q0 0.109375 0 0.3125l-5.15625 0q0.0625 1.140625 0.640625 1.75q0.578125 0.59375 1.4375 0.59375q0.65625 0 1.109375 -0.328125q0.453125 -0.34375 0.71875 -1.078125zm-3.84375 -1.90625l3.859375 0q-0.078125 -0.859375 -0.4375 -1.296875q-0.5625 -0.6875 -1.453125 -0.6875q-0.8125 0 -1.359375 0.546875q-0.546875 0.53125 -0.609375 1.4375zm6.5218506 4.125l0 -6.90625l1.046875 0l0 0.96875q0.328125 -0.515625 0.859375 -0.8125q0.546875 -0.3125 1.234375 -0.3125q0.78125 0 1.265625 0.3125q0.484375 0.3125 0.6875 0.890625q0.828125 -1.203125 2.140625 -1.203125q1.03125 0 1.578125 0.578125q0.5625 0.5625 0.5625 1.734375l0 4.75l-1.171875 0l0 -4.359375q0 -0.703125 -0.125 -1.0q-0.109375 -0.3125 -0.40625 -0.5q-0.296875 -0.1875 -0.703125 -0.1875q-0.71875 0 -1.203125 0.484375q-0.484375 0.484375 -0.484375 1.546875l0 4.015625l-1.171875 0l0 -4.484375q0 -0.78125 -0.296875 -1.171875q-0.28125 -0.390625 -0.921875 -0.390625q-0.5 0 -0.921875 0.265625q-0.421875 0.25 -0.609375 0.75q-0.1875 0.5 -0.1875 1.453125l0 3.578125l-1.171875 0zm15.836807 -2.21875l1.203125 0.140625q-0.28125 1.0625 -1.0625 1.65625q-0.765625 0.578125 -1.96875 0.578125q-1.515625 0 -2.40625 -0.9375q-0.890625 -0.9375 -0.890625 -2.609375q0 -1.75 0.890625 -2.703125q0.90625 -0.96875 2.34375 -0.96875q1.390625 0 2.265625 0.9375q0.875 0.9375 0.875 2.65625q0 0.109375 0 0.3125l-5.15625 0q0.0625 1.140625 0.640625 1.75q0.578125 0.59375 1.4375 0.59375q0.65625 0 1.109375 -0.328125q0.453125 -0.34375 0.71875 -1.078125zm-3.84375 -1.90625l3.859375 0q-0.078125 -0.859375 -0.4375 -1.296875q-0.5625 -0.6875 -1.453125 -0.6875q-0.8125 0 -1.359375 0.546875q-0.546875 0.53125 -0.609375 1.4375zm6.5218506 4.125l0 -6.90625l1.0625 0l0 0.984375q0.75 -1.140625 2.1875 -1.140625q0.625 0 1.15625 0.21875q0.53125 0.21875 0.78125 0.59375q0.265625 0.359375 0.375 0.859375q0.0625 0.328125 0.0625 1.140625l0 4.25l-1.171875 0l0 -4.203125q0 -0.71875 -0.140625 -1.0625q-0.140625 -0.359375 -0.484375 -0.5625q-0.34375 -0.21875 -0.8125 -0.21875q-0.75 0 -1.296875 0.46875q-0.546875 0.46875 -0.546875 1.796875l0 3.78125l-1.171875 0zm9.974976 -1.046875l0.171875 1.03125q-0.5 0.109375 -0.890625 0.109375q-0.640625 0 -1.0 -0.203125q-0.34375 -0.203125 -0.484375 -0.53125q-0.140625 -0.328125 -0.140625 -1.390625l0 -3.96875l-0.859375 0l0 -0.90625l0.859375 0l0 -1.71875l1.171875 -0.703125l0 2.421875l1.171875 0l0 0.90625l-1.171875 0l0 4.046875q0 0.5 0.046875 0.640625q0.0625 0.140625 0.203125 0.234375q0.140625 0.078125 0.40625 0.078125q0.203125 0 0.515625 -0.046875zm3.9528503 1.046875l3.65625 -9.546875l1.359375 0l3.90625 9.546875l-1.4375 0l-1.109375 -2.890625l-3.984375 0l-1.046875 2.890625l-1.34375 0zm2.75 -3.921875l3.234375 0l-1.0 -2.640625q-0.453125 -1.203125 -0.671875 -1.96875q-0.1875 0.90625 -0.515625 1.8125l-1.046875 2.796875zm7.1866302 3.921875l0 -9.546875l3.59375 0q0.953125 0 1.453125 0.09375q0.703125 0.125 1.171875 0.453125q0.484375 0.328125 0.765625 0.921875q0.296875 0.59375 0.296875 1.296875q0 1.21875 -0.78125 2.0625q-0.765625 0.84375 -2.796875 0.84375l-2.4375 0l0 3.875l-1.265625 0zm1.265625 -5.0l2.453125 0q1.234375 0 1.75 -0.453125q0.515625 -0.46875 0.515625 -1.28125q0 -0.609375 -0.3125 -1.03125q-0.296875 -0.421875 -0.796875 -0.5625q-0.3125 -0.09375 -1.171875 -0.09375l-2.4375 0l0 3.421875zm7.842865 5.0l0 -9.546875l1.25 0l0 9.546875l-1.25 0zm2.859253 -2.0625l1.15625 -0.1875q0.109375 0.703125 0.546875 1.078125q0.453125 0.359375 1.25 0.359375q0.8125 0 1.203125 -0.328125q0.390625 -0.328125 0.390625 -0.765625q0 -0.390625 -0.359375 -0.625q-0.234375 -0.15625 -1.1875 -0.390625q-1.296875 -0.328125 -1.796875 -0.5625q-0.484375 -0.25 -0.75 -0.65625q-0.25 -0.421875 -0.25 -0.9375q0 -0.453125 0.203125 -0.84375q0.21875 -0.40625 0.578125 -0.671875q0.28125 -0.1875 0.75 -0.328125q0.46875 -0.140625 1.015625 -0.140625q0.8125 0 1.421875 0.234375q0.609375 0.234375 0.90625 0.640625q0.296875 0.390625 0.40625 1.0625l-1.140625 0.15625q-0.078125 -0.53125 -0.453125 -0.828125q-0.375 -0.3125 -1.0625 -0.3125q-0.8125 0 -1.15625 0.265625q-0.34375 0.265625 -0.34375 0.625q0 0.234375 0.140625 0.421875q0.15625 0.1875 0.453125 0.3125q0.171875 0.0625 1.03125 0.296875q1.25 0.328125 1.734375 0.546875q0.5 0.203125 0.78125 0.609375q0.28125 0.40625 0.28125 1.0q0 0.59375 -0.34375 1.109375q-0.34375 0.515625 -1.0 0.796875q-0.640625 0.28125 -1.453125 0.28125q-1.34375 0 -2.046875 -0.5625q-0.703125 -0.5625 -0.90625 -1.65625z" fill-rule="nonzero"></path><path fill="#000000" fill-opacity="0.0" d="m433.72177 172.9252l0 0c0 -7.2833557 15.248199 -13.187668 34.05777 -13.187668c18.80957 0 34.05774 5.904312 34.05774 13.187668l0 52.750656c0 7.2833405 -15.248169 13.187653 -34.05774 13.187653c-18.80957 0 -34.05777 -5.904312 -34.05777 -13.187653z" fill-rule="evenodd"></path><path fill="#000000" fill-opacity="0.0" d="m501.83728 172.9252l0 0c0 7.2833405 -15.248169 13.187653 -34.05774 13.187653c-18.80957 0 -34.05777 -5.904312 -34.05777 -13.187653" fill-rule="evenodd"></path><path fill="#000000" fill-opacity="0.0" d="m433.72177 172.9252l0 0c0 -7.2833557 15.248199 -13.187668 34.05777 -13.187668c18.80957 0 34.05774 5.904312 34.05774 13.187668l0 52.750656c0 7.2833405 -15.248169 13.187653 -34.05774 13.187653c-18.80957 0 -34.05777 -5.904312 -34.05777 -13.187653z" fill-rule="evenodd"></path><path stroke="#000000" stroke-width="2.0" stroke-linejoin="round" stroke-linecap="butt" d="m501.83728 172.9252l0 0c0 7.2833405 -15.248169 13.187653 -34.05774 13.187653c-18.80957 0 -34.05777 -5.904312 -34.05777 -13.187653" fill-rule="evenodd"></path><path stroke="#000000" stroke-width="2.0" stroke-linejoin="round" stroke-linecap="butt" d="m433.72177 172.9252l0 0c0 -7.2833557 15.248199 -13.187668 34.05777 -13.187668c18.80957 0 34.05774 5.904312 34.05774 13.187668l0 52.750656c0 7.2833405 -15.248169 13.187653 -34.05774 13.187653c-18.80957 0 -34.05777 -5.904312 -34.05777 -13.187653z" fill-rule="evenodd"></path><path fill="#000000" d="m445.03278 207.63185l1.203125 -0.109375q0.078125 0.71875 0.390625 1.1875q0.3125 0.453125 0.953125 0.734375q0.65625 0.28125 1.46875 0.28125q0.71875 0 1.265625 -0.21875q0.5625 -0.21875 0.828125 -0.578125q0.265625 -0.375 0.265625 -0.828125q0 -0.453125 -0.265625 -0.78125q-0.25 -0.328125 -0.84375 -0.5625q-0.390625 -0.15625 -1.703125 -0.46875q-1.3125 -0.3125 -1.84375 -0.59375q-0.671875 -0.359375 -1.015625 -0.890625q-0.328125 -0.53125 -0.328125 -1.1875q0 -0.71875 0.40625 -1.34375q0.40625 -0.625 1.1875 -0.953125q0.796875 -0.328125 1.765625 -0.328125q1.046875 0 1.859375 0.34375q0.8125 0.34375 1.25 1.015625q0.4375 0.65625 0.46875 1.484375l-1.203125 0.09375q-0.109375 -0.90625 -0.671875 -1.359375q-0.5625 -0.46875 -1.65625 -0.46875q-1.140625 0 -1.671875 0.421875q-0.515625 0.421875 -0.515625 1.015625q0 0.515625 0.359375 0.84375q0.375 0.328125 1.90625 0.6875q1.546875 0.34375 2.109375 0.59375q0.84375 0.390625 1.234375 0.984375q0.390625 0.578125 0.390625 1.359375q0 0.75 -0.4375 1.4375q-0.421875 0.671875 -1.25 1.046875q-0.8125 0.359375 -1.828125 0.359375q-1.296875 0 -2.171875 -0.375q-0.875 -0.375 -1.375 -1.125q-0.5 -0.765625 -0.53125 -1.71875zm11.73349 2.015625l0.171875 1.03125q-0.5 0.109375 -0.890625 0.109375q-0.640625 0 -1.0 -0.203125q-0.34375 -0.203125 -0.484375 -0.53125q-0.140625 -0.328125 -0.140625 -1.390625l0 -3.96875l-0.859375 0l0 -0.90625l0.859375 0l0 -1.71875l1.171875 -0.703125l0 2.421875l1.171875 0l0 0.90625l-1.171875 0l0 4.046875q0 0.5 0.046875 0.640625q0.0625 0.140625 0.203125 0.234375q0.140625 0.078125 0.40625 0.078125q0.203125 0 0.515625 -0.046875zm0.7030029 -2.40625q0 -1.921875 1.078125 -2.84375q0.890625 -0.765625 2.171875 -0.765625q1.421875 0 2.328125 0.9375q0.90625 0.921875 0.90625 2.578125q0 1.328125 -0.40625 2.09375q-0.390625 0.765625 -1.15625 1.1875q-0.765625 0.421875 -1.671875 0.421875q-1.453125 0 -2.359375 -0.921875q-0.890625 -0.9375 -0.890625 -2.6875zm1.203125 0q0 1.328125 0.578125 1.984375q0.59375 0.65625 1.46875 0.65625q0.875 0 1.453125 -0.65625q0.578125 -0.671875 0.578125 -2.03125q0 -1.28125 -0.59375 -1.9375q-0.578125 -0.65625 -1.4375 -0.65625q-0.875 0 -1.46875 0.65625q-0.578125 0.65625 -0.578125 1.984375zm6.6312256 3.453125l0 -6.90625l1.0625 0l0 1.046875q0.40625 -0.734375 0.734375 -0.96875q0.34375 -0.234375 0.765625 -0.234375q0.59375 0 1.203125 0.375l-0.40625 1.078125q-0.4375 -0.25 -0.859375 -0.25q-0.390625 0 -0.703125 0.234375q-0.296875 0.234375 -0.421875 0.640625q-0.203125 0.625 -0.203125 1.359375l0 3.625l-1.171875 0zm8.9696045 -0.859375q-0.65625 0.5625 -1.265625 0.796875q-0.59375 0.21875 -1.28125 0.21875q-1.140625 0 -1.75 -0.546875q-0.609375 -0.5625 -0.609375 -1.4375q0 -0.5 0.21875 -0.921875q0.234375 -0.421875 0.609375 -0.671875q0.375 -0.25 0.84375 -0.390625q0.34375 -0.078125 1.046875 -0.171875q1.421875 -0.171875 2.09375 -0.40625q0 -0.234375 0 -0.296875q0 -0.71875 -0.328125 -1.015625q-0.453125 -0.390625 -1.34375 -0.390625q-0.8125 0 -1.21875 0.296875q-0.390625 0.28125 -0.578125 1.015625l-1.140625 -0.15625q0.15625 -0.734375 0.515625 -1.1875q0.359375 -0.453125 1.03125 -0.6875q0.671875 -0.25 1.5625 -0.25q0.890625 0 1.4375 0.203125q0.5625 0.203125 0.8125 0.53125q0.265625 0.3125 0.375 0.796875q0.046875 0.296875 0.046875 1.078125l0 1.5625q0 1.625 0.078125 2.0625q0.078125 0.4375 0.296875 0.828125l-1.21875 0q-0.1875 -0.359375 -0.234375 -0.859375zm-0.09375 -2.609375q-0.640625 0.265625 -1.921875 0.4375q-0.71875 0.109375 -1.015625 0.25q-0.296875 0.125 -0.46875 0.375q-0.15625 0.25 -0.15625 0.546875q0 0.46875 0.34375 0.78125q0.359375 0.3125 1.046875 0.3125q0.671875 0 1.203125 -0.296875q0.53125 -0.296875 0.78125 -0.8125q0.1875 -0.390625 0.1875 -1.171875l0 -0.421875zm2.7718506 4.046875l1.140625 0.15625q0.078125 0.53125 0.40625 0.78125q0.4375 0.3125 1.1875 0.3125q0.8125 0 1.25 -0.328125q0.453125 -0.3125 0.609375 -0.90625q0.09375 -0.359375 0.078125 -1.5q-0.765625 0.90625 -1.90625 0.90625q-1.4375 0 -2.21875 -1.03125q-0.78125 -1.03125 -0.78125 -2.46875q0 -0.984375 0.359375 -1.8125q0.359375 -0.84375 1.03125 -1.296875q0.6875 -0.453125 1.609375 -0.453125q1.21875 0 2.015625 0.984375l0 -0.828125l1.078125 0l0 5.96875q0 1.609375 -0.328125 2.28125q-0.328125 0.6875 -1.046875 1.078125q-0.703125 0.390625 -1.75 0.390625q-1.234375 0 -2.0 -0.5625q-0.75 -0.5625 -0.734375 -1.671875zm0.984375 -4.15625q0 1.359375 0.53125 1.984375q0.546875 0.625 1.359375 0.625q0.796875 0 1.34375 -0.625q0.546875 -0.625 0.546875 -1.953125q0 -1.265625 -0.5625 -1.90625q-0.5625 -0.640625 -1.359375 -0.640625q-0.765625 0 -1.3125 0.640625q-0.546875 0.625 -0.546875 1.875zm11.381226 1.359375l1.203125 0.140625q-0.28125 1.0625 -1.0625 1.65625q-0.765625 0.578125 -1.96875 0.578125q-1.515625 0 -2.40625 -0.9375q-0.890625 -0.9375 -0.890625 -2.609375q0 -1.75 0.890625 -2.703125q0.90625 -0.96875 2.34375 -0.96875q1.390625 0 2.265625 0.9375q0.875 0.9375 0.875 2.65625q0 0.109375 0 0.3125l-5.15625 0q0.0625 1.140625 0.640625 1.75q0.578125 0.59375 1.4375 0.59375q0.65625 0 1.109375 -0.328125q0.453125 -0.34375 0.71875 -1.078125zm-3.84375 -1.90625l3.859375 0q-0.078125 -0.859375 -0.4375 -1.296875q-0.5625 -0.6875 -1.453125 -0.6875q-0.8125 0 -1.359375 0.546875q-0.546875 0.53125 -0.609375 1.4375z" fill-rule="nonzero"></path><path fill="#000000" fill-opacity="0.0" d="m287.48557 92.120735l180.28348 0l0 67.62205" fill-rule="evenodd"></path><path stroke="#000000" stroke-width="2.0" stroke-linejoin="round" stroke-linecap="butt" d="m287.48557 92.120735l180.28348 0l0 67.62205" fill-rule="evenodd"></path></g></svg>

